<?xml version="1.0" encoding="utf-8"?><svg xmlns="http://www.w3.org/2000/svg" xmlns:xlink="http://www.w3.org/1999/xlink"><symbol viewBox="0 0 16 16" id="credit-card" xmlns="http://www.w3.org/2000/svg"><path fill-rule="evenodd" d="M14.77 7.143H1.23v5.265a.37.37 0 00.37.368h12.8a.37.37 0 00.37-.368V7.143zM1.23 5.918h13.54V3.592a.369.369 0 00-.37-.368H1.6a.369.369 0 00-.37.368v2.326zm2.34 5.143a.614.614 0 01-.616-.612c0-.338.275-.612.615-.612h2.954c.34 0 .615.274.615.612a.614.614 0 01-.615.612H3.57zm7.876 0a.614.614 0 01-.615-.612c0-.338.275-.612.615-.612h.985c.34 0 .615.274.615.612a.614.614 0 01-.615.612h-.985zM14.4 14H1.6C.717 14 0 13.287 0 12.408V3.592C0 2.713.717 2 1.6 2h12.8c.883 0 1.6.713 1.6 1.592v8.816c0 .879-.717 1.592-1.6 1.592z"/></symbol><symbol viewBox="0 0 16 16" id="lock" xmlns="http://www.w3.org/2000/svg"><path fill-rule="evenodd" d="M3.947 5.908V4.062A4.057 4.057 0 018 0a4.057 4.057 0 014.053 4.062v1.846h1.35c.882 0 1.597.716 1.597 1.6V14.4c0 .883-.715 1.6-1.596 1.6H2.596A1.599 1.599 0 011 14.4V7.508c0-.884.715-1.6 1.596-1.6h1.351zm1.228 0h5.65V4.062A2.828 2.828 0 008 1.23a2.828 2.828 0 00-2.825 2.83v1.847zm8.229 8.861a.37.37 0 00.368-.369V7.508a.37.37 0 00-.368-.37H2.596a.37.37 0 00-.368.37V14.4c0 .204.165.37.368.37h10.808zM8 13.046a2.09 2.09 0 01-2.088-2.092A2.09 2.09 0 018 8.862a2.09 2.09 0 012.088 2.092A2.09 2.09 0 018 13.046zm0-1.23a.86.86 0 10-.002-1.722A.86.86 0 008 11.815z"/></symbol><symbol viewBox="0 0 16 16" id="person" xmlns="http://www.w3.org/2000/svg"><path fill-rule="evenodd" d="M9.474 9.846a5.52 5.52 0 013.907 1.622A5.545 5.545 0 0115 15.385c0 .34-.275.615-.614.615H1.614A.615.615 0 011 15.385a5.532 5.532 0 015.526-5.539h2.948zM2.272 14.77h11.456a4.311 4.311 0 00-1.215-2.43 4.293 4.293 0 00-3.04-1.262H6.527a4.302 4.302 0 00-4.254 3.692zM8 8.123a4.057 4.057 0 01-4.053-4.061A4.057 4.057 0 018 0a4.057 4.057 0 014.053 4.062A4.057 4.057 0 018 8.123zm0-1.23a2.828 2.828 0 002.825-2.831A2.828 2.828 0 008 1.23a2.828 2.828 0 00-2.825 2.83A2.828 2.828 0 008 6.893z"/></symbol></svg>