<?xml version="1.0" encoding="UTF-8"?>
<svg width="24px" height="22px" viewBox="0 0 24 22" version="1.1" xmlns="http://www.w3.org/2000/svg" xmlns:xlink="http://www.w3.org/1999/xlink">
    <!-- Generator: sketchtool 57.1 (101010) - https://sketch.com -->
    <title>19FE1BD0-15D7-4DC6-BD15-BFF6512AC979</title>
    <desc>Created with sketchtool.</desc>
    <g id="Flow-#5-(Desktop)" stroke="none" stroke-width="1" fill="none" fill-rule="evenodd">
        <g id="[5][D]-Step-#9" transform="translate(-1073.000000, -545.000000)" fill="#B6B7C5">
            <g id="Content" transform="translate(548.000000, 329.000000)">
                <g id="Add-new" transform="translate(442.000000, 164.000000)">
                    <g id="Icons-/-24px-/-Add-payment" transform="translate(83.000000, 51.000000)">
                        <path d="M19.75,15 C20.1296958,15 20.443491,15.2821539 20.4931534,15.6482294 L20.5,15.75 L20.5,18 L22.75,18 C23.1296958,18 23.443491,18.2821539 23.4931534,18.6482294 L23.5,18.75 C23.5,19.1296958 23.2178461,19.443491 22.8517706,19.4931534 L22.75,19.5 L20.5,19.5 L20.5,21.75 C20.5,22.1642136 20.1642136,22.5 19.75,22.5 C19.3703042,22.5 19.056509,22.2178461 19.0068466,21.8517706 L19,21.75 L19,19.5 L16.75,19.5 C16.3703042,19.5 16.056509,19.2178461 16.0068466,18.8517706 L16,18.75 C16,18.3703042 16.2821539,18.056509 16.6482294,18.0068466 L16.75,18 L19,18 L19,15.75 C19,15.3357864 19.3357864,15 19.75,15 Z M1.5,11.5 L1.5,16.75 C1.5,17.4357864 2.06421356,18 2.75,18 L2.75,18 L10.75,18 C11.1642136,18 11.5,18.3357864 11.5,18.75 C11.5,19.1642136 11.1642136,19.5 10.75,19.5 L10.75,19.5 L2.75,19.5 C1.23578644,19.5 0,18.2642136 0,16.75 L0,16.75 L0,3.75 C0,2.23578644 1.23578644,1 2.75,1 L2.75,1 L20.75,1 C22.2642136,1 23.5,2.23578644 23.5,3.75 L23.5,3.75 L23.5,10.75 L23.5,10.75 L23.5,10.75 C23.5,11.1296958 23.2178461,11.443491 22.8517706,11.4931534 L22.75,11.5 L22.75,11.5 L1.5,11.5 Z M22,6.5 L1.5,6.5 L1.5,10 L22,10 L22,6.5 Z M20.75,2.5 L2.75,2.5 C2.06421356,2.5 1.5,3.06421356 1.5,3.75 L1.5,3.75 L1.5,5 L22,5 L22,3.75 C22,3.10707521 21.5041092,2.57100159 20.8770522,2.50650381 L20.75,2.5 Z" id="icon"></path>
                    </g>
                </g>
            </g>
        </g>
    </g>
</svg>