<?xml version="1.0" encoding="UTF-8"?>
<svg width="53px" height="14px" viewBox="0 0 53 14" version="1.1" xmlns="http://www.w3.org/2000/svg" xmlns:xlink="http://www.w3.org/1999/xlink">
    <!-- Generator: Sketch 51.3 (57544) - http://www.bohemiancoding.com/sketch -->
    <title>Group 27</title>
    <desc>Created with Sketch.</desc>
    <defs></defs>
    <g id="General.-Payment" stroke="none" stroke-width="1" fill="none" fill-rule="evenodd">
        <g id="tenant--&gt;-Payment---master-card" transform="translate(-766.000000, -3796.000000)">
            <g id="Group-2" transform="translate(165.000000, 208.000000)">
                <g id="Group-26" transform="translate(102.000000, 3427.000000)">
                    <g id="Group-28" transform="translate(436.000000, 158.000000)">
                        <g id="Group-27" transform="translate(63.000000, 3.000000)">
                            <path d="M52.3460485,0 L50.795292,0 C50.7944177,0 50.7935431,0.000283168421 50.7929605,0.000283168421 L50.7920859,0 C50.4371111,0 50.0768901,0.264189137 49.9763431,0.6003011 C49.9722632,0.613892816 49.9652684,0.626918232 49.9620627,0.641076284 C49.9620627,0.641076284 49.9250498,0.805026416 49.8609328,1.08847049 L47.7307914,10.4695907 C47.6815382,10.6816782 47.6486053,10.8198607 47.6386965,10.8558222 L47.6427764,10.860919 C47.5690419,11.1888194 47.7718847,11.4600875 48.1050016,11.4903857 L48.1093733,11.4966152 L49.7190009,11.4966152 C50.0716442,11.4966152 50.4295337,11.2349746 50.5332864,10.90311 C50.538241,10.8869699 50.54611,10.8719623 50.5498987,10.8558222 L52.8735566,0.640509947 L52.8700592,0.639377311 C52.9490396,0.289956763 52.7173443,0 52.3460485,0 L52.3460485,0 Z M44.3918235,9.21991755 C44.1767401,9.35158737 43.9494164,9.46428542 43.7113092,9.56027693 C43.3913072,9.68571723 43.0879171,9.75141053 42.8072598,9.75141053 C42.3765104,9.75141053 42.0454336,9.69222992 41.8216069,9.56565698 C41.5974889,9.44559678 41.4800383,9.23690722 41.483827,8.93817249 C41.483827,8.59328253 41.5657219,8.32569548 41.7353404,8.11587324 C41.9061249,7.91397954 42.1599697,7.75144517 42.4747258,7.63025233 C42.7877331,7.52718175 43.1727267,7.44223351 43.6171737,7.38135392 C44.0123675,7.33293341 44.7937204,7.24543669 44.8936848,7.24487035 C44.9936488,7.24402088 45.0600972,7.19050345 45.015507,7.44931254 C44.9956889,7.56172738 44.7701137,8.46161271 44.6666523,8.87078017 C44.6366338,8.99338886 44.4687638,9.17206338 44.3918235,9.21991755 C44.3918235,9.21991755 44.4687638,9.17206338 44.3918235,9.21991755 L44.3918235,9.21991755 Z M47.4583639,2.89523596 C46.8002907,2.53845322 45.7709214,2.35807976 44.362388,2.35807976 C43.6658443,2.35807976 42.9658036,2.41244662 42.2634311,2.51834881 C41.7478724,2.59508543 41.6948301,2.60782764 41.3745368,2.67550308 C40.715589,2.81481826 40.6138761,3.45589451 40.6138761,3.45589451 L40.4022901,4.30141291 C40.2822164,4.84225022 40.599304,4.81988051 40.7406529,4.77797268 C41.0283049,4.69359074 41.184226,4.60977514 41.7711878,4.48065376 C42.3322114,4.35691244 42.925002,4.26431884 43.3980103,4.26799995 C44.0916395,4.26799995 44.6191473,4.34190492 44.9697508,4.48405171 C45.3206455,4.63271115 45.4943441,4.88585698 45.4943441,5.24801977 C45.49551,5.33410069 45.4978415,5.41536785 45.4657831,5.48644125 C45.4369302,5.55270089 45.3815565,5.61669526 45.2157266,5.63849864 C44.2257024,5.69569715 43.5151695,5.783477 42.6594991,5.90466988 C41.8151951,6.0201995 41.0763926,6.21812899 40.4588297,6.49222873 C39.8004648,6.77595594 39.3079299,7.15567469 38.9684011,7.63676502 C38.6379073,8.12012066 38.4717861,8.70541424 38.4709115,9.39491099 C38.4709115,10.0464642 38.7119331,10.5779572 39.1782386,10.9905226 C39.6500814,11.397708 40.2638556,11.5993185 41.0064467,11.5993185 C41.4704208,11.5962037 41.8335559,11.5636402 42.0938125,11.5004953 C42.3514464,11.4373505 42.6323954,11.3475885 42.929082,11.2227145 C43.1508685,11.1326694 43.3901413,11.0024153 43.6428206,10.8390315 C43.8957912,10.6750813 44.0709473,10.5587022 44.2956482,10.415706 L44.3038086,10.4292977 L44.2405658,10.7002827 C44.2402741,10.7028311 44.2364855,10.7042469 44.2364855,10.7067954 L44.2385256,10.7118923 C44.1662483,11.0383768 44.3682168,11.3099281 44.7010421,11.3419253 L44.7051225,11.3475885 L44.734558,11.3475885 L44.7357236,11.3490043 C44.9566358,11.3490043 45.7149651,11.3487211 46.0693569,11.3475885 L46.3167903,11.3475885 C46.3331109,11.3475885 46.3348594,11.3427747 46.3412712,11.3390936 C46.6810913,11.2986016 47.0069221,11.0295988 47.0835711,10.7067954 L48.3492983,5.39894453 C48.3784426,5.27407057 48.4014663,5.12994167 48.4151642,4.9640094 C48.4309019,4.79637815 48.449554,4.65847882 48.4440168,4.55880618 C48.4469312,3.80758033 48.1146886,3.25230183 47.4583639,2.89523596 L47.4583639,2.89523596 L47.4583639,2.89523596 Z M39.8365267,1.68622311 C39.620569,1.27790512 39.2944469,0.949155311 38.8820582,0.693177874 C38.4591774,0.437766737 37.9567336,0.259658553 37.3750177,0.155738505 C36.7997132,0.0577648474 36.1157019,0.00169897368 35.3363891,0 L31.7102822,0.00169897368 C31.3369465,0.00792853158 30.9706053,0.292788374 30.8843389,0.643624726 L28.4464364,10.9512474 C28.3575469,11.3015174 28.6000257,11.5934563 28.9666582,11.5914742 L30.70656,11.5883594 C31.075524,11.5914742 31.4514827,11.3015174 31.5386235,10.9512474 L32.1267511,8.44980408 C32.2092289,8.09925089 32.5843132,7.80561305 32.9593977,7.81070997 L33.4539725,7.81070997 C35.5762448,7.81070997 37.2217198,7.38710129 38.400015,6.54384817 C39.5753958,5.69634759 40.1670205,4.58465796 40.1670205,3.20198336 C40.1632318,2.59828432 40.057439,2.08972739 39.8365267,1.68622311 L39.8365267,1.68622311 Z M36.0955922,5.05753666 C35.5762448,5.42451317 34.8473511,5.60856774 33.9094945,5.60856774 L33.4781621,5.60856774 C33.1051178,5.61281516 32.8640964,5.31974362 32.9526946,4.96834096 L33.4726249,2.78063995 C33.5501481,2.43461735 33.9287296,2.14013001 34.296528,2.14296162 L34.8662949,2.14013001 C35.5313628,2.14296162 36.0288524,2.25112908 36.3724611,2.4660482 C36.710241,2.68351576 36.8740307,3.02076036 36.8766538,3.47013671 C36.8781111,4.15510288 36.6172714,4.68206532 36.0955922,5.05753666 L36.0955922,5.05753666 Z" id="pal" fill="#306FC5"></path>
                            <path d="M27.7860216,2.35812618 C27.4558449,2.35812618 27.0227795,2.61930366 26.8177797,2.93494593 C26.8177797,2.93494593 24.6091721,6.63601606 24.3922506,7.00586976 C24.2743304,7.20472944 24.1548552,7.07832057 24.1348994,7.0043498 C24.1188311,6.91441962 23.4504436,2.95926507 23.4504436,2.95926507 C23.3752856,2.64083625 23.0350015,2.36749918 22.6094519,2.36876577 L21.2322469,2.37079238 C20.900256,2.37079238 20.6931829,2.63070327 20.767045,2.94482558 C20.767045,2.94482558 21.8197749,8.77736761 22.0250339,10.1491195 C22.1274042,10.9078262 22.0144081,11.0423415 22.0144081,11.0423415 L20.6496431,13.3683665 C20.4498266,13.6837555 20.5591944,13.9421464 20.8896302,13.9421464 L22.4855708,13.9408798 C22.8160067,13.9408798 23.253737,13.6837555 23.4504436,13.3678599 L29.590072,3.21790932 C29.590072,3.21790932 30.1773408,2.35077975 29.6356851,2.35812618 C29.2663744,2.36319267 27.7860216,2.35812618 27.7860216,2.35812618 L27.7860216,2.35812618 Z M16.2591842,9.21991755 C16.0441008,9.35158737 15.8170684,9.46371908 15.5789613,9.5599938 C15.2589592,9.68486772 14.9541122,9.7511274 14.6743289,9.7511274 C14.2447452,9.7511274 13.9127941,9.69166358 13.6886761,9.56565698 C13.4648495,9.44531361 13.346816,9.23662405 13.3506047,8.93760615 C13.3506047,8.59356566 13.4333739,8.32512914 13.602701,8.11559007 C13.7737768,7.9134132 14.026456,7.75059571 14.3412121,7.62968599 C14.6550938,7.52604912 15.041253,7.44223351 15.484243,7.38135392 C15.8794368,7.33293341 16.6616639,7.24571986 16.7613367,7.24430405 C16.8604266,7.24402088 16.9271665,7.18993715 16.8825761,7.4487462 C16.863341,7.56116108 16.6374744,8.46161271 16.5340129,8.87049701 C16.5028287,8.99367199 16.3349588,9.17234651 16.2591842,9.21991755 C16.2591842,9.21991755 16.3349588,9.17234651 16.2591842,9.21991755 L16.2591842,9.21991755 Z M19.3257245,2.89495279 C18.6676511,2.53817008 17.6385736,2.35807976 16.2300401,2.35807976 C15.5332051,2.35807976 14.8334556,2.41188032 14.1307918,2.51806564 C13.6143587,2.59423592 13.5624822,2.60726134 13.2418973,2.67493678 C12.5826581,2.81481826 12.4812367,3.45532817 12.4812367,3.45532817 L12.2696507,4.30141291 C12.1498685,4.84196705 12.4672476,4.81959734 12.6080135,4.77768955 C12.8950827,4.69330757 13.0518779,4.60977514 13.6388397,4.48008743 C14.198989,4.35691244 14.7926539,4.26460201 15.2650795,4.26771678 C15.9592916,4.26771678 16.4862166,4.34133862 16.8368199,4.48348537 C17.1880061,4.63214485 17.3608305,4.88585698 17.3608305,5.24773661 C17.363162,5.33381752 17.3649107,5.41536785 17.3337265,5.48587491 C17.304291,5.55270089 17.2483343,5.61641209 17.0825045,5.6379323 C16.0936458,5.69598032 15.3834045,5.783477 14.526277,5.90466988 C13.6819729,6.0201995 12.9434619,6.21812899 12.3256073,6.49194556 C11.6672425,6.77567277 11.1752904,7.15595783 10.8363447,7.63676502 C10.5046851,8.11983749 10.3388552,8.70513107 10.3382723,9.39491099 C10.3382723,10.046181 10.5795854,10.5779572 11.0453078,10.9902394 C11.5174419,11.3974248 12.1306334,11.5993185 12.8732246,11.5993185 C13.3374899,11.5962037 13.7003337,11.5630739 13.9614647,11.5004953 C14.2188069,11.4367841 14.5000473,11.3475885 14.7955683,11.2227145 C15.0182291,11.1326694 15.2569192,11.001849 15.5098898,10.8387483 C15.7622776,10.6750813 15.9383078,10.5587022 16.163883,10.415706 L16.1708776,10.4290145 L16.1076349,10.6997164 C16.1070521,10.7022648 16.1035548,10.7039638 16.1035548,10.7070785 L16.1061777,10.7113259 C16.0339004,11.0386599 16.235286,11.3099281 16.5684029,11.3413589 L16.5724831,11.3475885 L16.6016271,11.3475885 L16.6025015,11.3495706 C16.8239965,11.3495706 17.582617,11.3484379 17.9361347,11.3475885 L18.1838594,11.3475885 C18.2004715,11.3475885 18.202803,11.3422084 18.208049,11.3388105 C18.5487433,11.2971858 18.8734084,11.0287493 18.9509316,10.7070785 L20.2166591,5.39866136 C20.2452203,5.27407057 20.2685356,5.12994167 20.281359,4.96429257 C20.2982626,4.79581182 20.3166234,4.65847882 20.3116689,4.55908932 C20.3145833,3.80729716 19.9817578,3.25201866 19.3257245,2.89495279 L19.3257245,2.89495279 Z M11.4085082,1.68622311 C11.1925505,1.27790512 10.8664282,0.949155311 10.4540395,0.693177874 C10.0311588,0.437766737 9.52871485,0.259658553 8.94699895,0.155738505 C8.37169476,0.0577648474 7.68768314,0.00169897368 6.90837036,0 L3.28226362,0.00169897368 C2.9089279,0.00792853158 2.54258677,0.292788374 2.45632029,0.643624726 L0.0184177762,10.9512474 C-0.0704716538,11.3015174 0.172007124,11.5934563 0.538639662,11.5914742 L2.27854139,11.5883594 C2.64750547,11.5914742 3.02346417,11.3015174 3.11060494,10.9512474 L3.69873254,8.44980408 C3.78121031,8.09925089 4.15629464,7.80561305 4.53137898,7.81070997 L5.02595407,7.81070997 C7.14822616,7.81070997 8.79370109,7.38710129 9.97199634,6.54384817 C11.1473772,5.69634759 11.739002,4.58465796 11.739002,3.20198336 C11.7352133,2.59828432 11.6294203,2.08972739 11.4085082,1.68622311 L11.4085082,1.68622311 Z M7.66757372,5.05753666 C7.14822616,5.42451317 6.41933265,5.60856774 5.48147607,5.60856774 L5.05014365,5.60856774 C4.67709941,5.61281516 4.43607785,5.31974362 4.52467584,4.96834096 L5.04460628,2.78063995 C5.12212956,2.43461735 5.50071117,2.14013001 5.86850951,2.14296162 L6.4382763,2.14013001 C7.1033443,2.14296162 7.60083377,2.25112908 7.9444425,2.4660482 C8.28222244,2.68351576 8.44601217,3.02076036 8.44863515,3.47013671 C8.45009233,4.15510288 8.18925281,4.68206532 7.66757372,5.05753666 L7.66757372,5.05753666 Z" id="pay" fill="#265697"></path>
                        </g>
                    </g>
                </g>
            </g>
        </g>
    </g>
</svg>