<?xml version="1.0" encoding="UTF-8"?>
<svg width="26px" height="8px" viewBox="0 0 26 8" version="1.1" xmlns="http://www.w3.org/2000/svg" xmlns:xlink="http://www.w3.org/1999/xlink">
    <!-- Generator: sketchtool 51.3 (57544) - http://www.bohemiancoding.com/sketch -->
    <title>2B1B1053-288C-42F8-A787-F8DC9579C783</title>
    <desc>Created with sketchtool.</desc>
    <defs></defs>
    <g id="General.-Payment" stroke="none" stroke-width="1" fill="none" fill-rule="evenodd">
        <g id="tenant--&gt;-Payment" transform="translate(-601.000000, -3799.000000)" fill-rule="nonzero">
            <g id="Group-2" transform="translate(165.000000, 208.000000)">
                <g id="Group-26" transform="translate(102.000000, 3427.000000)">
                    <g id="Input" transform="translate(0.000000, 125.000000)">
                        <g id="visa-(2)" transform="translate(334.000000, 39.000000)">
                            <polygon id="Shape" fill="#3C58BF" points="9.53333333 7.76103896 10.8539683 0.280519481 12.9174603 0.280519481 11.6380952 7.76103896"></polygon>
                            <polygon id="Shape" fill="#293688" points="9.53333333 7.76103896 11.2253968 0.280519481 12.9174603 0.280519481 11.6380952 7.76103896"></polygon>
                            <path d="M19.1079365,0.363636364 C18.6952381,0.197402597 18.0349206,0.0311688312 17.2095238,0.0311688312 C15.1460317,0.0311688312 13.6603175,1.07012987 13.6603175,2.56623377 C13.6603175,3.68831169 14.6920635,4.27012987 15.5174603,4.64415584 C16.3428571,5.01818182 16.5904762,5.26753247 16.5904762,5.6 C16.5904762,6.0987013 15.9301587,6.34805195 15.352381,6.34805195 C14.5269841,6.34805195 14.0730159,6.22337662 13.3714286,5.93246753 L13.0825397,5.80779221 L12.7936508,7.51168831 C13.2888889,7.71948052 14.1968254,7.92727273 15.1460317,7.92727273 C17.3333333,7.92727273 18.7777778,6.88831169 18.7777778,5.30909091 C18.7777778,4.43636364 18.2412698,3.77142857 17.0031746,3.23116883 C16.2603175,2.85714286 15.8063492,2.64935065 15.8063492,2.27532468 C15.8063492,1.94285714 16.1777778,1.61038961 17.0031746,1.61038961 C17.7047619,1.61038961 18.2,1.73506494 18.5714286,1.9012987 L18.7777778,1.98441558 L19.1079365,0.363636364 Z" id="Shape" fill="#3C58BF"></path>
                            <path d="M19.1079365,0.363636364 C18.6952381,0.197402597 18.0349206,0.0311688312 17.2095238,0.0311688312 C15.1460317,0.0311688312 14.031746,1.07012987 14.031746,2.56623377 C14.031746,3.68831169 14.6920635,4.27012987 15.5174603,4.64415584 C16.3428571,5.01818182 16.5904762,5.26753247 16.5904762,5.6 C16.5904762,6.0987013 15.9301587,6.34805195 15.352381,6.34805195 C14.5269841,6.34805195 14.0730159,6.22337662 13.3714286,5.93246753 L13.0825397,5.80779221 L12.7936508,7.51168831 C13.2888889,7.71948052 14.1968254,7.92727273 15.1460317,7.92727273 C17.3333333,7.92727273 18.7777778,6.88831169 18.7777778,5.30909091 C18.7777778,4.43636364 18.2412698,3.77142857 17.0031746,3.23116883 C16.2603175,2.85714286 15.8063492,2.64935065 15.8063492,2.27532468 C15.8063492,1.94285714 16.1777778,1.61038961 17.0031746,1.61038961 C17.7047619,1.61038961 18.2,1.73506494 18.5714286,1.9012987 L18.7777778,1.98441558 L19.1079365,0.363636364 Z" id="Shape" fill="#293688"></path>
                            <path d="M22.6571429,0.280519481 C22.1619048,0.280519481 21.7904762,0.322077922 21.584127,0.820779221 L18.4888889,7.76103896 L20.7174603,7.76103896 L21.1301587,6.51428571 L23.7714286,6.51428571 L24.0190476,7.76103896 L26,7.76103896 L24.2666667,0.280519481 L22.6571429,0.280519481 Z M21.7079365,5.26753247 C21.831746,4.89350649 22.5333333,3.06493506 22.5333333,3.06493506 C22.5333333,3.06493506 22.6984127,2.60779221 22.8222222,2.31688312 L22.9460317,3.02337662 C22.9460317,3.02337662 23.3587302,4.89350649 23.4412698,5.30909091 L21.7079365,5.30909091 L21.7079365,5.26753247 Z" id="Shape" fill="#3C58BF"></path>
                            <path d="M23.152381,0.280519481 C22.6571429,0.280519481 22.2857143,0.322077922 22.0793651,0.820779221 L18.4888889,7.76103896 L20.7174603,7.76103896 L21.1301587,6.51428571 L23.7714286,6.51428571 L24.0190476,7.76103896 L26,7.76103896 L24.2666667,0.280519481 L23.152381,0.280519481 Z M21.7079365,5.26753247 C21.8730159,4.85194805 22.5333333,3.06493506 22.5333333,3.06493506 C22.5333333,3.06493506 22.6984127,2.60779221 22.8222222,2.31688312 L22.9460317,3.02337662 C22.9460317,3.02337662 23.3587302,4.89350649 23.4412698,5.30909091 L21.7079365,5.30909091 L21.7079365,5.26753247 Z" id="Shape" fill="#293688"></path>
                            <path d="M5.73650794,5.51688312 L5.53015873,4.43636364 C5.15873016,3.18961039 3.96190476,1.81818182 2.64126984,1.15324675 L4.4984127,7.8025974 L6.72698413,7.8025974 L10.0698413,0.322077922 L7.84126984,0.322077922 L5.73650794,5.51688312 Z" id="Shape" fill="#3C58BF"></path>
                            <path d="M5.73650794,5.51688312 L5.53015873,4.43636364 C5.15873016,3.18961039 3.96190476,1.81818182 2.64126984,1.15324675 L4.4984127,7.8025974 L6.72698413,7.8025974 L10.0698413,0.322077922 L8.25396825,0.322077922 L5.73650794,5.51688312 Z" id="Shape" fill="#293688"></path>
                            <path d="M0,0.280519481 L0.371428571,0.363636364 C3.01269841,0.987012987 4.82857143,2.56623377 5.53015873,4.43636364 L4.78730159,0.903896104 C4.66349206,0.405194805 4.29206349,0.280519481 3.83809524,0.280519481 L0,0.280519481 Z" id="Shape" fill="#FFBC00"></path>
                            <path d="M0,0.280519481 C2.64126984,0.903896104 4.82857143,2.52467532 5.53015873,4.39480519 L4.82857143,1.44415584 C4.7047619,0.945454545 4.29206349,0.654545455 3.83809524,0.654545455 L0,0.280519481 Z" id="Shape" fill="#F7981D"></path>
                            <path d="M0,0.280519481 C2.64126984,0.903896104 4.82857143,2.52467532 5.53015873,4.39480519 L5.03492063,2.77402597 C4.91111111,2.27532468 4.74603175,1.77662338 4.16825397,1.56883117 L0,0.280519481 Z" id="Shape" fill="#ED7C00"></path>
                            <g id="Group" transform="translate(2.682540, 1.090909)" fill="#051244">
                                <path d="M5.11746032,4.17662338 L3.71428571,2.76363636 L3.05396825,4.34285714 L2.88888889,3.3038961 C2.51746032,2.05714286 1.32063492,0.685714286 0,0.0207792208 L1.85714286,6.67012987 L4.08571429,6.67012987 L5.11746032,4.17662338 Z" id="Shape"></path>
                                <polygon id="Shape" points="8.95555556 6.67012987 7.18095238 4.84155844 6.85079365 6.67012987"></polygon>
                                <path d="M13.7015873,4.09350649 C13.8666667,4.25974026 13.9492063,4.38441558 13.9079365,4.55064935 C13.9079365,5.04935065 13.247619,5.2987013 12.6698413,5.2987013 C11.8444444,5.2987013 11.3904762,5.17402597 10.6888889,4.88311688 L10.4,4.75844156 L10.1111111,6.46233766 C10.6063492,6.67012987 11.5142857,6.87792208 12.4634921,6.87792208 C13.784127,6.87792208 14.8571429,6.5038961 15.4761905,5.83896104 L13.7015873,4.09350649 Z" id="Shape"></path>
                                <path d="M16.0952381,6.67012987 L18.0349206,6.67012987 L18.447619,5.42337662 L21.0888889,5.42337662 L21.3365079,6.67012987 L23.3174603,6.67012987 L22.615873,3.63636364 L20.1396825,1.22597403 L20.2634921,1.89090909 C20.2634921,1.89090909 20.6761905,3.76103896 20.7587302,4.17662338 L19.0253968,4.17662338 C19.1904762,3.76103896 19.8507937,1.97402597 19.8507937,1.97402597 C19.8507937,1.97402597 20.015873,1.51688312 20.1396825,1.22597403" id="Shape"></path>
                            </g>
                        </g>
                    </g>
                </g>
            </g>
        </g>
    </g>
</svg>