<svg xmlns="http://www.w3.org/2000/svg" width="16" height="16" viewBox="0 0 16 16">
    <path fill="#2680EB" fill-rule="nonzero" d="M.075 8.293a.61.61 0 0 1 0-.586 13.847 13.847 0 0 1 .563-.894c.45-.657.973-1.314 1.563-1.93C3.921 3.09 5.864 2 8 2c2.136 0 4.079 1.09 5.799 2.883a15.235 15.235 0 0 1 1.977 2.569c.072.118.122.205.149.255.1.183.1.403 0 .586a13.847 13.847 0 0 1-.563.894c-.45.657-.973 1.314-1.563 1.93C12.079 12.91 10.136 14 8 14c-2.136 0-4.079-1.09-5.799-2.883A15.235 15.235 0 0 1 .224 8.548a7.251 7.251 0 0 1-.149-.255zM1.33 8a14.023 14.023 0 0 0 1.762 2.271C4.601 11.845 6.26 12.776 8 12.776c1.74 0 3.398-.93 4.909-2.505A14.023 14.023 0 0 0 14.67 8a14.023 14.023 0 0 0-1.762-2.271C11.399 4.155 9.74 3.224 8 3.224c-1.74 0-3.398.93-4.909 2.505A14.023 14.023 0 0 0 1.33 8zM8 11.061A3.07 3.07 0 0 1 4.923 8 3.07 3.07 0 0 1 8 4.939 3.07 3.07 0 0 1 11.077 8 3.07 3.07 0 0 1 8 11.061zm0-1.224c1.02 0 1.846-.823 1.846-1.837A1.841 1.841 0 0 0 8 6.163c-1.02 0-1.846.823-1.846 1.837S6.98 9.837 8 9.837z"/>
</svg>
