<svg xmlns="http://www.w3.org/2000/svg" width="40" height="40" viewBox="0 0 40 40"><g fill="#fff" stroke="#ccced3" stroke-miterlimit="10" stroke-width="1"><rect width="40" height="40" rx="20" stroke="none"/><rect x="0.5" y="0.5" width="39" height="39" rx="19.5" fill="none"/></g><path d="M-6.708,5.278a.75.75,0,0,0-.22.53v.38a.77.77,0,0,0,.22.53l5.14,5.13A.5.5,0,0,0-1.213,12a.5.5,0,0,0,.355-.148l.71-.71A.49.49,0,0,0,0,10.788a.49.49,0,0,0-.147-.35L-4.6,6l4.45-4.44A.5.5,0,0,0,0,1.2.5.5,0,0,0-.148.848l-.71-.7A.5.5,0,0,0-1.213,0a.5.5,0,0,0-.355.148Z" transform="translate(23.928 14)" fill="#9393c2"/></svg>