<svg xmlns="http://www.w3.org/2000/svg" width="40" height="40" viewBox="0 0 40 40"><g fill="#fff" stroke="#ccced3" stroke-miterlimit="10" stroke-width="1"><rect width="40" height="40" rx="20" stroke="none"/><rect x="0.5" y="0.5" width="39" height="39" rx="19.5" fill="none"/></g><path d="M6.708,5.278a.75.75,0,0,1,.22.53v.38a.77.77,0,0,1-.22.53l-5.14,5.13a.5.5,0,0,1-.71,0l-.71-.71a.49.49,0,0,1,0-.7L4.6,6,.148,1.558a.5.5,0,0,1,0-.71l.71-.7a.5.5,0,0,1,.71,0Z" transform="translate(17.072 14.002)" fill="#9393c2"/></svg>