<svg xmlns="http://www.w3.org/2000/svg" width="48" height="48" viewBox="0 0 48 48">
    <g fill="#838798" fill-rule="evenodd">
        <path d="M10.5 25.668l13.25 7.228L37 25.668V2.5H10.5v23.168zM9 24.85V1.75A.75.75 0 0 1 9.75 1h28a.75.75 0 0 1 .75.75v23.1l6.891-3.758a.75.75 0 1 1 .718 1.316l-7.825 4.269a.749.749 0 0 1-.38.207L25.315 33.75 46.11 45.092a.75.75 0 0 1-.718 1.316l-21.99-11.994a.75.75 0 0 1-.02-.012L9.596 26.884a.749.749 0 0 1-.38-.207L1.39 22.408a.75.75 0 0 1 .718-1.316L9 24.85zm8.75-12.35a.75.75 0 1 1 0-1.5h12a.75.75 0 0 1 0 1.5h-12zm0 8a.75.75 0 1 1 0-1.5h12a.75.75 0 0 1 0 1.5h-12z"/>
        <path d="M45 22.133V45H2.5V22.133l7.69-5.576a.75.75 0 1 0-.88-1.214l-8 5.8a.75.75 0 0 0-.31.607v24c0 .414.336.75.75.75h44a.75.75 0 0 0 .75-.75v-24a.75.75 0 0 0-.31-.607l-8-5.8a.75.75 0 1 0-.88 1.214L45 22.133z"/>
    </g>
</svg>
