<svg xmlns="http://www.w3.org/2000/svg" width="16" height="16" viewBox="0 0 16 16">
    <path fill="#838798" fill-rule="evenodd" d="M11.282 8.895a34.6 34.6 0 0 1 .32-4.101.613.613 0 0 0-.43-.67C7.59 3.035 5.437 4.317 4.63 6.69c-.674 1.985-.383 3.982 1.338 4.897 1.494.795 3.355.246 4.488-1.046.424.983 1.165 1.498 2.474 1.397 1.972-.152 2.87-1.87 3.036-4.424.299-2.923-1.381-5.713-4.13-6.834a8.761 8.761 0 0 0-9.588 1.894c-2.606 3.02-3.16 7.948-.52 10.97 2.458 2.821 6.933 2.96 10.298 1.678a.612.612 0 1 0-.439-1.145c-2.937 1.12-6.898.996-8.932-1.338C.46 10.228.939 5.97 3.15 3.406 5.28 1.272 8.54.628 11.366 1.813a5.452 5.452 0 0 1 3.375 5.6c-.133 2.038-.748 3.215-1.906 3.304-.996.077-1.363-.508-1.551-1.81-.028-.223-.001-.008-.002-.012zm-4.735 1.612C5.49 9.945 5.29 8.57 5.795 7.084c.567-1.673 1.933-2.564 4.52-1.926a34.67 34.67 0 0 0-.255 3.71c-.574 1.47-2.302 2.284-3.513 1.64z"/>
</svg>
