<svg xmlns="http://www.w3.org/2000/svg" width="142" height="14" viewBox="0 0 142 14"><path d="M131.457,12.833l1.183-2.708a7.861,7.861,0,0,0,3.922,1.041c1.328,0,1.764-.292,1.764-.77,0-1.521-6.641.208-6.641-4.313,0-2.125,1.951-3.749,5.479-3.749a9.846,9.846,0,0,1,4.441.958L140.423,5.98a6.564,6.564,0,0,0-3.237-.833c-1.328,0-1.805.374-1.805.791,0,1.562,6.62-.125,6.62,4.354,0,2.083-1.91,3.709-5.562,3.709A10.29,10.29,0,0,1,131.457,12.833Zm-22.705-4V2.521H112.7V8.187c0,1.751.685,2.438,1.868,2.438,1.163,0,2.117-.771,2.117-2.667V2.521h3.944V13.812h-3.757V12.6a4.428,4.428,0,0,1-3.342,1.4C110.765,14,108.752,12.416,108.752,8.833ZM94.265,8.146c0-3.4,2.678-5.812,6.351-5.812,3.715,0,6.35,2.417,6.35,5.812,0,3.416-2.635,5.855-6.35,5.855C96.943,14,94.265,11.562,94.265,8.146ZM86.151,9.688V5.9h-1.64V2.938h1.64V0h3.943V2.938h2.574V5.9H90.094v3.75a1.145,1.145,0,0,0,1.183,1.292,2.149,2.149,0,0,0,1.2-.355l.976,2.771a5.286,5.286,0,0,1-2.74.646C87.832,14,86.151,12.583,86.151,9.688Zm-12.7,3.146,1.183-2.708a7.864,7.864,0,0,0,3.923,1.041c1.328,0,1.764-.292,1.764-.77,0-1.521-6.641.208-6.641-4.313,0-2.125,1.95-3.749,5.479-3.749a9.84,9.84,0,0,1,4.441.958L82.415,5.98a6.567,6.567,0,0,0-3.237-.833c-1.328,0-1.806.374-1.806.791,0,1.562,6.621-.125,6.621,4.354,0,2.083-1.91,3.709-5.563,3.709A10.289,10.289,0,0,1,73.449,12.833ZM45.369,8.146c0-3.4,2.677-5.812,6.35-5.812,3.715,0,6.35,2.417,6.35,5.812,0,3.416-2.635,5.855-6.35,5.855C48.046,14,45.369,11.562,45.369,8.146Zm-11.54,4.687,1.183-2.708a7.861,7.861,0,0,0,3.922,1.041c1.328,0,1.764-.292,1.764-.77,0-1.521-6.641.208-6.641-4.313,0-2.125,1.95-3.749,5.479-3.749a9.846,9.846,0,0,1,4.441.958L42.8,5.98a6.564,6.564,0,0,0-3.237-.833c-1.328,0-1.806.374-1.806.791,0,1.562,6.621-.125,6.621,4.354,0,2.083-1.91,3.709-5.562,3.709A10.29,10.29,0,0,1,33.829,12.833ZM21.045,10.521c0-2.083,1.515-3.375,5-3.375h2.241C28.226,6,27.458,5.354,25.9,5.354a5.229,5.229,0,0,0-3.051.979L21.522,3.646a9.428,9.428,0,0,1,4.961-1.312c3.652,0,5.748,1.625,5.748,5.208v6.27H28.558V12.354A3.4,3.4,0,0,1,25.237,14C22.539,14,21.045,12.479,21.045,10.521Zm102.11,3.291V2.521h3.757V3.875a4.594,4.594,0,0,1,3.777-1.542V5.9a7.217,7.217,0,0,0-.893-.063,2.459,2.459,0,0,0-2.7,2.792v5.188Zm-55.227,0V8c0-1.625-.706-2.313-1.847-2.313-1.266,0-2.242.792-2.242,2.667v5.459H59.9V2.521h3.757V3.75a4.82,4.82,0,0,1,3.569-1.417c2.636,0,4.648,1.52,4.648,5.02v6.458Zm-52.674,0V8c0-1.625-.664-2.313-1.7-2.313-1.141,0-1.971.771-1.971,2.521v5.6H7.637V8c0-1.625-.643-2.313-1.7-2.313-1.162,0-1.993.771-1.993,2.521v5.6H0V2.521H3.757V3.708A4.466,4.466,0,0,1,7.119,2.334,4.113,4.113,0,0,1,10.751,4.1a4.864,4.864,0,0,1,3.9-1.77c2.615,0,4.546,1.52,4.546,5.02v6.458Z" fill="#fff"/></svg>