<svg xmlns="http://www.w3.org/2000/svg" width="20" height="20.001" viewBox="0 0 20 20.001"><path d="M14.11,4.667V3.556a.567.567,0,0,1,.167-.411A.589.589,0,0,1,14.721,3,8.888,8.888,0,0,1,23,11.277a.589.589,0,0,1-.144.422.567.567,0,0,1-.411.167H21.332a.556.556,0,0,1-.556-.511,6.666,6.666,0,0,0-6.133-6.133.556.556,0,0,1-.533-.556ZM14.3,7.6a.555.555,0,0,0-.189.422V9.133a.544.544,0,0,0,.444.544,2.222,2.222,0,0,1,1.778,1.744.544.544,0,0,0,.544.444h1.111a.556.556,0,0,0,.422-.189.578.578,0,0,0,.133-.444,4.5,4.5,0,0,0-3.777-3.789.578.578,0,0,0-.444.156Zm5,15.4a2.222,2.222,0,0,0,1.578-.655l1.878-1.878a.833.833,0,0,0-.167-1.311l-4.288-2.5a1.111,1.111,0,0,0-1.344.178l-2.1,2.1a.556.556,0,0,1-.655.1l-.733-.4a15.032,15.032,0,0,1-6.111-6.1L6.966,11.8a.556.556,0,0,1,.1-.655l2.1-2.1A1.111,1.111,0,0,0,9.344,7.7l-2.5-4.288a.833.833,0,0,0-1.311-.167L3.655,5.122A2.222,2.222,0,0,0,3,6.7v.744A11.188,11.188,0,0,0,4.322,12.71l.278.5a20,20,0,0,0,8.144,8.144l.5.278A11.188,11.188,0,0,0,18.554,23Z" transform="translate(-3 -2.998)" fill="#ff4f07"/></svg>