<svg xmlns="http://www.w3.org/2000/svg" width="50.006" height="50.007" viewBox="0 0 50.006 50.007"><g transform="translate(-3.136 -3)"><path d="M31.332,31.927a16.677,16.677,0,0,0-2.222,3.022,62.79,62.79,0,0,1-9.7-9.67,11.768,11.768,0,0,0,3.031-2.216c4.041-4.029,2.626-9.267-1.414-13.3S11.937,4.125,7.694,8.356A13.063,13.063,0,0,0,6.28,24.473,87.6,87.6,0,0,0,29.918,48.044c4.849,3.223,12.122,2.619,16.163-1.41s2.626-9.267-1.414-13.3S35.373,27.7,31.332,31.927Z" transform="translate(0 1.889)" fill="none" stroke="#ff4f07" stroke-linejoin="round" stroke-miterlimit="10" stroke-width="2"/><path d="M38,23.945A19.89,19.89,0,0,0,18,4" transform="translate(14.14)" fill="none" stroke="#ff4f07" stroke-linecap="round" stroke-linejoin="round" stroke-miterlimit="10" stroke-width="2"/><path d="M28,18.469A9.694,9.694,0,0,0,18.1,9" transform="translate(14.242 5.073)" fill="none" stroke="#ff4f07" stroke-linecap="round" stroke-linejoin="round" stroke-miterlimit="10" stroke-width="2"/></g></svg>