<svg xmlns="http://www.w3.org/2000/svg" width="24" height="24" viewBox="0 0 24 24">
  <path id="flight" d="M24.933,3.029l-.305.84a4.363,4.363,0,0,1-1.014,1.6L18.9,10.185l2.236,11.16a2.815,2.815,0,0,1,0,.415,2.062,2.062,0,0,1-.622,1.484l-.185.185a.48.48,0,0,1-.371.153.524.524,0,0,1-.447-.251l-4.527-9.24-4.527,3.763.48,5.672a1.091,1.091,0,0,1-.305.742l-.578.578a.524.524,0,0,1-.84-.142l-2.64-5.28-5.28-2.64a.524.524,0,0,1-.142-.84l.578-.578a1.091,1.091,0,0,1,.742-.305l5.6.469,3.84-4.516-9.24-4.56a.524.524,0,0,1-.251-.447.48.48,0,0,1,.153-.371l.185-.185a2.062,2.062,0,0,1,1.516-.633,2.814,2.814,0,0,1,.415,0L15.814,7.1l4.713-4.713a4.363,4.363,0,0,1,1.6-1.015l.84-.305a1.091,1.091,0,0,1,1.145.251l.567.567a1.091,1.091,0,0,1,.251,1.145Z" transform="translate(-1 -0.999)" fill="#ff4f07" fill-rule="evenodd"/>
</svg>
