<svg xmlns="http://www.w3.org/2000/svg" width="24" height="24" viewBox="0 0 24 24">
  <path id="boat" d="M24.368,12.207,22.4,11.6v-6a2.986,2.986,0,0,0-.876-2.123l-.648-.648A2.989,2.989,0,0,0,18.8,2H9.2a2.989,2.989,0,0,0-2.124.876l-.648.648A2.986,2.986,0,0,0,5.6,5.6v6l-1.968.588a.6.6,0,0,0-.408.732l2.124,7.868A7.96,7.96,0,0,0,8,21.19c3.252,0,3.324-1.2,6-1.2s2.832,1.2,6,1.2a7.96,7.96,0,0,0,2.652-.4L24.8,12.939h0a.588.588,0,0,0-.432-.732ZM20,10.888l-1-.3-4.32-1.3a2.4,2.4,0,0,0-1.368,0L8,10.888V5.6H20ZM26,23v1.2a.6.6,0,0,1-.54.6C23.4,24.945,22.94,26,20,26c-3.18,0-3.42-1.2-6-1.2S11.264,26,8,26c-2.952,0-3.372-1.031-5.46-1.2A.6.6,0,0,1,2,24.2V23a.6.6,0,0,1,.648-.6C5.228,22.558,5.6,23.589,8,23.589s2.82-1.2,6-1.2,3.42,1.2,6,1.2c2.4,0,2.772-1.031,5.352-1.2A.6.6,0,0,1,26,23Z" transform="translate(-2 -2)" fill="#ff4f07"/>
</svg>
