<svg xmlns="http://www.w3.org/2000/svg" width="20" height="24" viewBox="0 0 20 24">
  <path id="bus" d="M23.087,3.524l-.675-.648A3.178,3.178,0,0,0,20.25,2H7.75a3.18,3.18,0,0,0-2.212.876l-.675.648A2.925,2.925,0,0,0,4,5.6V24.8A1.226,1.226,0,0,0,5.25,26H6.5a1.226,1.226,0,0,0,1.25-1.2V23.6h12.5v1.2A1.226,1.226,0,0,0,21.5,26h1.25A1.226,1.226,0,0,0,24,24.8V5.6a2.93,2.93,0,0,0-.913-2.076ZM10.25,20A1.226,1.226,0,0,1,9,21.2H7.75A1.226,1.226,0,0,1,6.5,20V18.8a1.226,1.226,0,0,1,1.25-1.2H9a1.226,1.226,0,0,1,1.25,1.2ZM21.5,20a1.226,1.226,0,0,1-1.25,1.2H19A1.226,1.226,0,0,1,17.75,20V18.8A1.226,1.226,0,0,1,19,17.6h1.25a1.226,1.226,0,0,1,1.25,1.2Zm0-6H6.5V6.8h15Z" transform="translate(-4 -2)" fill="#ff4f07"/>
</svg>
