<svg xmlns="http://www.w3.org/2000/svg" width="24" height="24" viewBox="0 0 24 24">
  <path id="cafe" d="M24.333,5.667H21.667V4.333A1.333,1.333,0,0,0,20.333,3h-16A1.333,1.333,0,0,0,3,4.333V6.28a7.28,7.28,0,0,0,.133,1.427L5.067,18.373A4,4,0,0,0,9,21.667h6.667a4,4,0,0,0,3.933-3.28l.853-4.72h3.88A2.667,2.667,0,0,0,27,11V8.333A2.667,2.667,0,0,0,24.333,5.667Zm0,5.333h-3.4l.493-2.667h2.907Zm-2,13.333H3.667A.667.667,0,0,0,3,25v1.333A.667.667,0,0,0,3.667,27H22.333A.667.667,0,0,0,23,26.333V25A.667.667,0,0,0,22.333,24.333Z" transform="translate(-3 -3)" fill="#ff4f07"/>
</svg>
