<svg xmlns="http://www.w3.org/2000/svg" width="24" height="16" viewBox="0 0 24 16">
  <path id="cairo" d="M24.887,18.45l-6.24-7.14a.845.845,0,0,0-.656-.31h-.35a.88.88,0,0,0-.667.31l-2,2.3-4.142-5.3a.849.849,0,0,0-.7-.31H9.8a.869.869,0,0,0-.667.31L1.151,18.45a.688.688,0,0,0,0,.81l.229.36a.824.824,0,0,0,.71.38H23.948a.824.824,0,0,0,.71-.38l.229-.36A.688.688,0,0,0,24.887,18.45ZM4.2,18l5.77-7.33L12.462,18ZM19.576,8a2.1,2.1,0,0,0,2.186-2,2.194,2.194,0,0,0-4.371,0A2.1,2.1,0,0,0,19.576,8Z" transform="translate(-1.019 -4)" fill="#ff4f07"/>
</svg>
