<svg xmlns="http://www.w3.org/2000/svg" width="24" height="22" viewBox="0 0 24 22">
  <path id="car" d="M27,14.395a5.816,5.816,0,0,0-.2-1.512L24.88,6.008A2.681,2.681,0,0,0,22.32,4H7.653A2.681,2.681,0,0,0,5.12,5.994L3.2,12.869A5.817,5.817,0,0,0,3,14.395v10.23A1.355,1.355,0,0,0,4.333,26H5.667A1.355,1.355,0,0,0,7,24.625V23.25H23v1.375A1.355,1.355,0,0,0,24.333,26h1.333A1.355,1.355,0,0,0,27,24.625ZM7.36,6.654a.335.335,0,0,1,.32-.247H22.347a.335.335,0,0,1,.32.247l1.52,5.6H5.813Zm2.307,11.1a1.355,1.355,0,0,1-1.333,1.375H7A1.355,1.355,0,0,1,5.667,17.75V16.375A1.355,1.355,0,0,1,7,15H8.333a1.355,1.355,0,0,1,1.333,1.375Zm14.667,0A1.355,1.355,0,0,1,23,19.125H21.667a1.355,1.355,0,0,1-1.333-1.375V16.375A1.355,1.355,0,0,1,21.667,15H23a1.355,1.355,0,0,1,1.333,1.375Z" transform="translate(-3 -4)" fill="#ff4f07"/>
</svg>
