<svg xmlns="http://www.w3.org/2000/svg" width="24" height="22" viewBox="0 0 24 22">
  <path id="briefcase_outlined" d="M11.6,16.444v-.611a.606.606,0,0,1,.6-.611h3.6a.606.606,0,0,1,.6.611v.611a1.211,1.211,0,0,1-1.2,1.222H12.8A1.211,1.211,0,0,1,11.6,16.444ZM26,10.333V22.556A2.423,2.423,0,0,1,23.6,25H4.4A2.423,2.423,0,0,1,2,22.556V10.333A2.423,2.423,0,0,1,4.4,7.889H8V5.444A2.423,2.423,0,0,1,10.4,3h7.2A2.423,2.423,0,0,1,20,5.444V7.889h3.6A2.423,2.423,0,0,1,26,10.333ZM10.4,7.889h7.2V5.444H10.4Zm13.2,2.444H4.4V22.556H23.6Z" transform="translate(-2 -3)" fill="#ff4f07"/>
</svg>
