<svg xmlns="http://www.w3.org/2000/svg" width="24" height="24" viewBox="0 0 24 24">
  <path id="dollar_outlined" d="M14,2A12,12,0,1,0,26,14,12,12,0,0,0,14,2Zm0,21.6A9.6,9.6,0,1,1,23.6,14,9.6,9.6,0,0,1,14,23.6ZM15.2,8V7.4a.6.6,0,0,0-.6-.6H13.4a.6.6,0,0,0-.6.6V8a2.4,2.4,0,0,0-2.4,2.4v.972a2.4,2.4,0,0,0,.876,1.848l4.116,3.4a.264.264,0,0,1,.108.228V17.9h-3V16.7a.6.6,0,0,0-.6-.6H11a.6.6,0,0,0-.6.6v.9A2.4,2.4,0,0,0,12.8,20v.6a.6.6,0,0,0,.6.6h1.2a.6.6,0,0,0,.6-.6V20a2.4,2.4,0,0,0,2.4-2.4v-.972a2.4,2.4,0,0,0-.876-1.848l-4.116-3.4a.264.264,0,0,1-.108-.228V10.1h3v1.2a.6.6,0,0,0,.6.6H17a.6.6,0,0,0,.6-.6v-.9A2.4,2.4,0,0,0,15.2,8Z" transform="translate(-2 -2)" fill="#ff4f07"/>
</svg>
