<svg xmlns="http://www.w3.org/2000/svg" width="24" height="20" viewBox="0 0 24 20">
  <path id="city" d="M25,21.333a.551.551,0,0,0-.545-.556H21.727V8.556a1.1,1.1,0,0,0-1.091-1.111H16.273V4.111A1.1,1.1,0,0,0,15.182,3H10.818A1.1,1.1,0,0,0,9.727,4.111v7.778H5.364A1.1,1.1,0,0,0,4.273,13v7.778H1.545A.551.551,0,0,0,1,21.333v1.111A.551.551,0,0,0,1.545,23H24.455A.551.551,0,0,0,25,22.444ZM17.909,9.667H19a.551.551,0,0,1,.545.556v1.111a.551.551,0,0,1-.545.556H17.909a.551.551,0,0,1-.545-.556V10.222A.551.551,0,0,1,17.909,9.667Zm0,4.444H19a.551.551,0,0,1,.545.556v1.111a.551.551,0,0,1-.545.556H17.909a.551.551,0,0,1-.545-.556V14.667A.551.551,0,0,1,17.909,14.111Zm0,4.444H19a.551.551,0,0,1,.545.556v1.111a.551.551,0,0,1-.545.556H17.909a.551.551,0,0,1-.545-.556V19.111A.551.551,0,0,1,17.909,18.556ZM12.455,9.667h1.091a.551.551,0,0,1,.545.556v1.111a.551.551,0,0,1-.545.556H12.455a.551.551,0,0,1-.545-.556V10.222A.551.551,0,0,1,12.455,9.667Zm0,4.444h1.091a.551.551,0,0,1,.545.556v1.111a.551.551,0,0,1-.545.556H12.455a.551.551,0,0,1-.545-.556V14.667A.551.551,0,0,1,12.455,14.111Zm1.636-8.333V6.889a.551.551,0,0,1-.545.556H12.455a.551.551,0,0,1-.545-.556V5.778a.551.551,0,0,1,.545-.556h1.091A.551.551,0,0,1,14.091,5.778Zm-6,15H7a.551.551,0,0,1-.545-.556V19.111A.551.551,0,0,1,7,18.556H8.091a.551.551,0,0,1,.545.556v1.111A.551.551,0,0,1,8.091,20.778Zm0-4.444H7a.551.551,0,0,1-.545-.556V14.667A.551.551,0,0,1,7,14.111H8.091a.551.551,0,0,1,.545.556v1.111A.551.551,0,0,1,8.091,16.333Zm3.818,3.889V19.111a.551.551,0,0,1,.545-.556h1.091a.551.551,0,0,1,.545.556v1.111a.551.551,0,0,1-.545.556H12.455A.551.551,0,0,1,11.909,20.222Z" transform="translate(-1 -3)" fill="#ff4f07"/>
</svg>
