<svg xmlns="http://www.w3.org/2000/svg" width="22" height="24" viewBox="0 0 22 24">
  <g id="dolly-fish" transform="translate(-3.117 -1.999)">
    <path id="Path_10" data-name="Path 10" d="M124.173,44.2a1.041,1.041,0,0,0,.664-.679,1,1,0,0,0-.18-.919c-1.314-1.638-5.144-2.715-6.685-3.112a16.25,16.25,0,0,1,1.919,5.995Z" transform="translate(-103.891 -32.897)" fill="#ff4f07"/>
    <path id="Path_11" data-name="Path 11" d="M25.415,86.321c-.525,1.449-1.716,5.514-1.14,7.374a1.042,1.042,0,0,0,.668.675,1.087,1.087,0,0,0,.956-.131l2.556-2.827C27.308,90.361,25.531,86.637,25.415,86.321Z" transform="translate(-21.004 -75.213)" fill="#ff4f07"/>
    <path id="Path_12" data-name="Path 12" d="M52.99,20.06a.536.536,0,0,0-.49-.219c-.042,0-4.23.395-6.619-1.7a5.16,5.16,0,0,1-1.666-4.083c0-6.068-2.762-9.029-5.079-10.445A11.275,11.275,0,0,0,34.037,2a.535.535,0,0,0-.506.323c-1.8,4.371-1.969,8.154-.491,11.243,1.692,3.537,5.466,6.21,11.538,8.172,2.057.665,4.271,2.122,4.271,3.749a.517.517,0,0,0,.408.5.535.535,0,0,0,.6-.27,2.95,2.95,0,0,0,.026-1.707,5.647,5.647,0,0,1-.1-1.11,4.506,4.506,0,0,0,3.253-2.317.5.5,0,0,0-.038-.522ZM36.273,8.252a1.634,1.634,0,0,1-1.314-1.376,1.519,1.519,0,0,1,1.314-1.269,1.629,1.629,0,0,1,1.411,1.269A1.743,1.743,0,0,1,36.273,8.252Z" transform="translate(-27.967 0)" fill="#ff4f07"/>
  </g>
</svg>
