<svg xmlns="http://www.w3.org/2000/svg" width="24" height="22" viewBox="0 0 24 22">
  <g id="fins" transform="translate(-0.309 -26.381)">
    <path id="Union_1" data-name="Union 1" d="M5.146,21.831l-1.817-.924A.206.206,0,0,0,3.2,20.9l-1.59.506A1.242,1.242,0,0,1,.46,21.176a1.28,1.28,0,0,1-.454-1.105L.964,9.792a.07.07,0,0,1,.016.01L1.5,4.033A4.485,4.485,0,0,1,2.91,1.16,4.294,4.294,0,0,1,5.841,0h0A4.308,4.308,0,0,1,8.781,1.155a4.5,4.5,0,0,1,1.408,2.879l.6,6.242a.043.043,0,0,0-.012.008l.912,9.788a1.289,1.289,0,0,1-.45,1.105,1.253,1.253,0,0,1-1.154.229l-1.657-.524-1.875.95a1.588,1.588,0,0,1-.7.169A1.556,1.556,0,0,1,5.146,21.831Zm-1.118-19a2.452,2.452,0,0,0-.512,1.98.708.708,0,0,0,.69.593.671.671,0,0,0,.125-.014.717.717,0,0,0,.57-.833,1,1,0,0,1,.209-.8.939.939,0,0,1,1.47,0,.985.985,0,0,1,.209.8.717.717,0,0,0,.57.833.705.705,0,0,0,.815-.579,2.452,2.452,0,0,0-.512-1.98,2.345,2.345,0,0,0-3.635,0Z" transform="translate(12.617 26.381)" fill="#ff4f07"/>
    <path id="Union_2" data-name="Union 2" d="M5.146,21.831l-1.817-.924A.206.206,0,0,0,3.2,20.9l-1.59.506A1.242,1.242,0,0,1,.46,21.176a1.28,1.28,0,0,1-.454-1.105L.964,9.792a.07.07,0,0,1,.016.01L1.5,4.033A4.485,4.485,0,0,1,2.91,1.16,4.294,4.294,0,0,1,5.841,0h0A4.308,4.308,0,0,1,8.781,1.155a4.5,4.5,0,0,1,1.408,2.879l.6,6.242a.043.043,0,0,0-.012.008l.912,9.788a1.289,1.289,0,0,1-.45,1.105,1.253,1.253,0,0,1-1.154.229l-1.657-.524-1.875.95a1.588,1.588,0,0,1-.7.169A1.556,1.556,0,0,1,5.146,21.831Zm-1.118-19a2.452,2.452,0,0,0-.512,1.98.708.708,0,0,0,.69.593.671.671,0,0,0,.125-.014.717.717,0,0,0,.57-.833,1,1,0,0,1,.209-.8.939.939,0,0,1,1.47,0,.985.985,0,0,1,.209.8.717.717,0,0,0,.57.833.705.705,0,0,0,.815-.579,2.452,2.452,0,0,0-.512-1.98,2.345,2.345,0,0,0-3.635,0Z" transform="translate(0.309 26.381)" fill="#ff4f07"/>
  </g>
</svg>
