<svg xmlns="http://www.w3.org/2000/svg" width="24.005" height="24" viewBox="0 0 24.005 24">
  <g id="golf" transform="translate(0 -0.05)">
    <g id="Group_49" data-name="Group 49" transform="translate(5.673 0.05)">
      <g id="Group_48" data-name="Group 48" transform="translate(0 0)">
        <path id="Path_19" data-name="Path 19" d="M130.457,3.149,123.424.119a.719.719,0,0,0-1.018.629v14.2c-.809.2-1.407.719-1.407,1.317,0,.762.966,1.407,2.11,1.407s2.11-.644,2.11-1.407c0-.6-.6-1.119-1.407-1.317V6.9l6.531-2.446A.7.7,0,0,0,130.457,3.149Z" transform="translate(-121 -0.05)" fill="#ff4f07"/>
      </g>
    </g>
    <g id="Group_51" data-name="Group 51" transform="translate(0 9.891)">
      <g id="Group_50" data-name="Group 50">
        <path id="Path_20" data-name="Path 20" d="M12,209.951a20.952,20.952,0,0,0-2.11.112v4.028a2.668,2.668,0,0,1,1.407,2.236c0,1.551-1.578,2.813-3.516,2.813s-3.516-1.262-3.516-2.813a2.668,2.668,0,0,1,1.407-2.236v-3.1C2.276,212.222,0,214.466,0,217.03c0,3.943,5.3,7.079,12,7.079s12-3.136,12-7.079S18.707,209.951,12,209.951Zm5.673,9.893a2.11,2.11,0,1,1,2.11-2.11A2.112,2.112,0,0,1,17.675,219.844Z" transform="translate(0 -209.951)" fill="#ff4f07"/>
      </g>
    </g>
  </g>
</svg>
