<svg xmlns="http://www.w3.org/2000/svg" width="20" height="24" viewBox="0 0 20 24">
  <path id="support" d="M23,14.091v4.364a2.2,2.2,0,0,1-2.222,2.182v1.091A3.3,3.3,0,0,1,17.444,25H14.111A1.1,1.1,0,0,1,13,23.909v-.545a.551.551,0,0,1,.556-.545h3.889a1.1,1.1,0,0,0,1.111-1.091V20.636a1.1,1.1,0,0,1-1.111-1.091V13a1.1,1.1,0,0,1,1.111-1.091V8.636a5.556,5.556,0,0,0-11.111,0v3.273A1.1,1.1,0,0,1,8.556,13v6.545a1.1,1.1,0,0,1-1.111,1.091H5.222A2.2,2.2,0,0,1,3,18.455V14.091a2.2,2.2,0,0,1,2.222-2.182V8.636A7.708,7.708,0,0,1,13,1a7.708,7.708,0,0,1,7.778,7.636v3.273A2.2,2.2,0,0,1,23,14.091Z" transform="translate(-3 -1)" fill="#ff4f07"/>
</svg>
