<svg xmlns="http://www.w3.org/2000/svg" width="24" height="18" viewBox="0 0 24 18">
  <g id="helicopter" transform="translate(0 -72.247)">
    <g id="Group_47" data-name="Group 47" transform="translate(0 72.247)">
      <path id="Path_9" data-name="Path 9" d="M23.217,86.974a.8.8,0,0,0-.783.818.8.8,0,0,1-.783.818H20.359V86.942a3.509,3.509,0,0,0,2.077-1.072A3.835,3.835,0,0,0,23.491,83.2a2.4,2.4,0,0,0-.026-.511,7.517,7.517,0,0,0-7.339-7.165h-.465V73.883h7.047a.819.819,0,0,0,0-1.636H7.047a.819.819,0,0,0,0,1.636h7.047V75.52H1.566V74.7a.8.8,0,0,0-.783-.818A.8.8,0,0,0,0,74.7v4.909a.8.8,0,0,0,.783.818.8.8,0,0,0,.783-.818v-.588L8.8,80.913h0a.81.81,0,0,1,.593.793,5.281,5.281,0,0,0,3.132,4.875v2.029H10.18a.819.819,0,0,0,0,1.636H21.651A2.406,2.406,0,0,0,24,87.792.8.8,0,0,0,23.217,86.974Zm-7.556-9.818h.465a5.884,5.884,0,0,1,5.691,4.909H16.444a.8.8,0,0,1-.783-.818V77.156Zm3.132,11.455h-4.7V86.962c.113.008.228.012.343.012h4.355Z" transform="translate(0 -72.247)" fill="#ff4f07"/>
    </g>
  </g>
</svg>
