<svg xmlns="http://www.w3.org/2000/svg" width="19" height="24" viewBox="0 0 19 24">
  <path id="hiking" d="M8.364,16.469l1.953,1.276-.268.916A3.308,3.308,0,0,1,9.5,19.753L7.271,22.611a.566.566,0,0,1-.781.109l-.881-.665a.548.548,0,0,1-.112-.764l2.232-2.858a1.081,1.081,0,0,0,.179-.36ZM12.046,5.364a2.207,2.207,0,0,0,2.232-2.182,2.232,2.232,0,0,0-4.463,0A2.207,2.207,0,0,0,12.046,5.364Zm-5.768,0H4.37a1.114,1.114,0,0,0-1.116.785L2,10.491a1.081,1.081,0,0,0,.513,1.244l1.618.916a.569.569,0,0,0,.489.031.55.55,0,0,0,.325-.358L6.813,6.062a.536.536,0,0,0-.089-.48.562.562,0,0,0-.446-.218ZM20.4,4.273H19.288a.564.564,0,0,0-.4.164.539.539,0,0,0-.159.393l.089,4.9h-.937a2.336,2.336,0,0,1-1.227-.371L13.073,7.011a3.4,3.4,0,0,0-1.863-.556h-.5A2.225,2.225,0,0,0,8.554,8.036L7.237,12.531a1.079,1.079,0,0,0,.457,1.211l5.1,3.273a.846.846,0,0,1,.368.687v6.753A.552.552,0,0,0,13.72,25h1.116a.552.552,0,0,0,.558-.545V17.364a2.169,2.169,0,0,0-.993-1.822l-2.845-1.855h0l1.216-4.178,2.477,1.571a5.054,5.054,0,0,0,2.611.829h.982l.167,12.556a.563.563,0,0,0,.558.535h.58a.563.563,0,0,0,.558-.535l.257-19.636a.539.539,0,0,0-.159-.393A.564.564,0,0,0,20.4,4.273Z" transform="translate(-1.961 -1)" fill="#ff4f07"/>
</svg>
