<svg xmlns="http://www.w3.org/2000/svg" width="24" height="20" viewBox="0 0 24 20">
  <path id="XMLID_19_" d="M22.141,16.992c-.535.545-.8.785-1.41.785h0c-.613,0-.875-.241-1.41-.786a4.324,4.324,0,0,0-1.949-1.3,5.524,5.524,0,0,0-4.277-4.466V6.177a2.6,2.6,0,0,1,1.455,2.342,1.091,1.091,0,1,0,2.182,0A4.842,4.842,0,0,0,15.12,4.9a2.517,2.517,0,0,1,1.255.7,1.077,1.077,0,0,0,1.543,0,1.126,1.126,0,0,0,0-1.571,4.668,4.668,0,0,0-3.649-1.4,2.5,2.5,0,0,1,1.372-.41,1.1,1.1,0,0,0,1.091-1.111A1.1,1.1,0,0,0,15.64,0,4.686,4.686,0,0,0,12,1.742,4.686,4.686,0,0,0,8.367,0,1.1,1.1,0,0,0,7.277,1.111,1.1,1.1,0,0,0,8.367,2.222a2.5,2.5,0,0,1,1.372.41,4.668,4.668,0,0,0-3.649,1.4,1.126,1.126,0,0,0,0,1.571,1.077,1.077,0,0,0,1.543,0,2.517,2.517,0,0,1,1.255-.7A4.842,4.842,0,0,0,7.277,8.518a1.091,1.091,0,1,0,2.182,0,2.6,2.6,0,0,1,1.455-2.342v5.046a5.524,5.524,0,0,0-4.277,4.466,4.323,4.323,0,0,0-1.948,1.3c-.535.545-.8.785-1.41.785h0c-.613,0-.875-.241-1.41-.786h0a1.077,1.077,0,0,0-1.543,0,1.126,1.126,0,0,0,0,1.571A3.865,3.865,0,0,0,3.276,20h0A3.864,3.864,0,0,0,6.23,18.563c.535-.544.8-.785,1.409-.786h0c.613,0,.876.241,1.41.786A3.864,3.864,0,0,0,12,20h0a3.864,3.864,0,0,0,2.953-1.436c.535-.545.8-.785,1.409-.786h0c.613,0,.875.241,1.41.786A3.864,3.864,0,0,0,20.731,20h0a3.865,3.865,0,0,0,2.953-1.436,1.126,1.126,0,0,0,0-1.571A1.077,1.077,0,0,0,22.141,16.992Z" transform="translate(-0.004)" fill="#ff4f07"/>
</svg>
