<svg xmlns="http://www.w3.org/2000/svg" width="16" height="24" viewBox="0 0 16 24">
  <path id="music" d="M22,12.649v1.679a.667.667,0,0,1-.667.666H20a.667.667,0,0,1-.667-.666v-.36a3.612,3.612,0,0,0-2-3.145c-.24-.133-.453-.293-.667-.44v12a5.039,5.039,0,0,1-5.333,4.611A5.039,5.039,0,0,1,6,22.325a5.039,5.039,0,0,1,5.333-4.665A5.722,5.722,0,0,1,14,18.314V3.666A.667.667,0,0,1,14.667,3H16a.667.667,0,0,1,.667.666v.227a3.558,3.558,0,0,0,1.907,3.225A6.157,6.157,0,0,1,22,12.649Z" transform="translate(-6 -3)" fill="#ff4f07"/>
</svg>
