<svg xmlns="http://www.w3.org/2000/svg" width="24" height="16" viewBox="0 0 24 16">
  <path id="group_equal" d="M5.365,8.429A3.354,3.354,0,0,1,8.638,5a3.354,3.354,0,0,1,3.274,3.429,3.354,3.354,0,0,1-3.274,3.429A3.354,3.354,0,0,1,5.365,8.429Zm12,3.429a3.354,3.354,0,0,0,3.274-3.429,3.277,3.277,0,1,0-6.547,0,3.354,3.354,0,0,0,3.274,3.429Zm7.518,7.486-1.571-3.3a3.262,3.262,0,0,0-2.924-1.9H16.026a5.633,5.633,0,0,1,.524.869l1.582,3.314A3.577,3.577,0,0,1,18.274,21h5.642a1.082,1.082,0,0,0,.927-.545A1.19,1.19,0,0,0,24.886,19.343Zm-10.3-3.3a3.261,3.261,0,0,0-2.935-1.9H5.626a3.261,3.261,0,0,0-2.935,1.9l-1.571,3.3a1.19,1.19,0,0,0,.044,1.112A1.082,1.082,0,0,0,2.091,21H15.185a1.082,1.082,0,0,0,.927-.545,1.19,1.19,0,0,0,.044-1.112Z" transform="translate(-1.003 -5)" fill="#ff4f07"/>
</svg>
