<svg xmlns="http://www.w3.org/2000/svg" width="16" height="24" viewBox="0 0 16 24">
  <path id="standing" d="M10.326,3.182a2.118,2.118,0,1,1,4.235,0,2.118,2.118,0,1,1-4.235,0Zm10,9.818-4-4.975a4.186,4.186,0,0,0-3.261-1.571H11.819A4.186,4.186,0,0,0,8.558,8.025L4.557,13a.557.557,0,0,0,.074.764l.8.7a.529.529,0,0,0,.752-.065l3.081-3.84v13.9A.538.538,0,0,0,9.8,25h1.059a.538.538,0,0,0,.529-.545V16.273H13.5v8.182a.538.538,0,0,0,.529.545H15.09a.538.538,0,0,0,.529-.545v-13.9L18.7,14.375a.529.529,0,0,0,.752.065l.8-.7A.557.557,0,0,0,20.331,13Z" transform="translate(-4.439 -1)" fill="#ff4f07"/>
</svg>
