<svg xmlns="http://www.w3.org/2000/svg" width="20" height="24" viewBox="0 0 20 24">
  <path id="top_security" d="M22.022,5.495,18.1,1.644A2.243,2.243,0,0,0,16.522,1H9.478A2.243,2.243,0,0,0,7.9,1.644L3.978,5.495A3.243,3.243,0,0,0,3,7.807v6.382a8.672,8.672,0,0,0,3.433,6.884l4.533,3.469A2.249,2.249,0,0,0,12.333,25h1.333a2.249,2.249,0,0,0,1.367-.458l4.533-3.469A8.672,8.672,0,0,0,23,14.189V7.807a3.243,3.243,0,0,0-.978-2.313Zm-4.167,5.455L15.633,12.8l.7,2.793a.54.54,0,0,1-.208.568.564.564,0,0,1-.614.032L13,14.7,10.5,16.2a.564.564,0,0,1-.624-.022.54.54,0,0,1-.209-.578l.678-2.771L8.122,10.971a.55.55,0,0,1-.152-.581.564.564,0,0,1,.474-.379l2.889-.218,1.111-2.651a.56.56,0,0,1,1.022,0l1.111,2.651,2.889.218a.567.567,0,0,1,.525.351.549.549,0,0,1-.137.609Z" transform="translate(-3 -1)" fill="#ff4f07"/>
</svg>
