<svg xmlns="http://www.w3.org/2000/svg" width="40" height="40" viewBox="0 0 40 40"><g transform="translate(-245 -3877)"><circle cx="20" cy="20" r="20" transform="translate(245 3877)" fill="#ff4f07" opacity="0.902"/><path d="M7.614,9.882V20.471A.522.522,0,0,1,7.1,21H4.529a.522.522,0,0,1-.514-.529V9.882a.522.522,0,0,1,.514-.529H7.1A.522.522,0,0,1,7.614,9.882ZM21.5,14.022a4.857,4.857,0,0,0-3.651-4.828,4.5,4.5,0,0,0-4.063,1.133V9.882a.522.522,0,0,0-.514-.529H10.7a.522.522,0,0,0-.514.529V20.471A.522.522,0,0,0,10.7,21h2.571a.522.522,0,0,0,.514-.529V14.5a2.179,2.179,0,0,1,1.707-2.2,2.016,2.016,0,0,1,1.686.477,2.145,2.145,0,0,1,.72,1.641v6.056a.522.522,0,0,0,.514.529h2.571a.522.522,0,0,0,.514-.529ZM5.557,3A2.088,2.088,0,0,0,3.5,5.118,2.088,2.088,0,0,0,5.557,7.235,2.088,2.088,0,0,0,7.614,5.118,2.088,2.088,0,0,0,5.557,3Z" transform="translate(252.5 3885)" fill="#fff"/></g></svg>