<svg xmlns="http://www.w3.org/2000/svg" width="40" height="40" viewBox="0 0 40 40"><g transform="translate(-190 -3877)"><circle cx="20" cy="20" r="20" transform="translate(190 3877)" fill="#ff4f07" opacity="0.902"/><path d="M21.97,6.592a8.214,8.214,0,0,1-1.847,1.883v.582a13.3,13.3,0,0,1-3.621,9.2,11.833,11.833,0,0,1-8.731,3.723A11.661,11.661,0,0,1,2.33,20.65a.265.265,0,0,1-.15-.243V20.29a.268.268,0,0,1,.26-.275,8.545,8.545,0,0,0,5.112-1.946,4.363,4.363,0,0,1-3.884-2.708.289.289,0,0,1,.029-.268.254.254,0,0,1,.231-.113,3.78,3.78,0,0,0,1.518-.148A4.523,4.523,0,0,1,2,10.8a.282.282,0,0,1,.107-.244.248.248,0,0,1,.253-.031,3.805,3.805,0,0,0,1.578.36A4.669,4.669,0,0,1,2.23,5.662a.55.55,0,0,1,.4-.369.522.522,0,0,1,.505.178,12.059,12.059,0,0,0,8.4,4.1,4.47,4.47,0,0,1-.12-1.058A4.61,4.61,0,0,1,14.182,4.3a4.183,4.183,0,0,1,4.733,1.107A8.357,8.357,0,0,0,21.3,4.53a.162.162,0,0,1,.18,0,.189.189,0,0,1,0,.19,4.549,4.549,0,0,1-1.757,2.115,8.171,8.171,0,0,0,2-.508.152.152,0,0,1,.18,0,.177.177,0,0,1,.093.115.189.189,0,0,1-.023.149Z" transform="translate(198.001 3884.016)" fill="#fff" fill-rule="evenodd"/></g></svg>