<svg xmlns="http://www.w3.org/2000/svg" width="16" height="16" viewBox="0 0 16 16">
    <path fill="#B6B7C5" fill-rule="evenodd" d="M15.945 4.712C16 5.59 16 5.808 16 8c0 2.192 0 2.466-.055 3.288-.055.822-.164 1.424-.383 1.918-.22.547-.493.986-.932 1.424a4.012 4.012 0 0 1-1.424.932c-.494.219-1.096.328-1.918.383C10.41 16 10.192 16 8 16c-2.192 0-2.466 0-3.288-.055-.822-.055-1.424-.164-1.918-.383a4.012 4.012 0 0 1-1.424-.932 4.012 4.012 0 0 1-.932-1.424C.22 12.712.11 12.11.055 11.288 0 10.41 0 10.192 0 8c0-2.192 0-2.466.055-3.288.055-.822.164-1.424.383-1.918.22-.547.493-.986.932-1.424A4.012 4.012 0 0 1 2.794.438C3.288.22 3.89.11 4.712.055 5.59 0 5.863 0 8 0c2.137 0 2.41 0 3.288.055.822.055 1.424.164 1.918.383.547.22.986.493 1.424.932.439.438.712.877.932 1.424.219.494.328 1.096.383 1.918zm-1.424 6.52c.054-.876.054-1.095.054-3.232 0-2.137 0-2.411-.055-3.233-.054-.767-.164-1.205-.274-1.48-.164-.383-.328-.657-.602-.93-.274-.275-.548-.44-.932-.604-.274-.11-.712-.219-1.48-.274-.876-.054-1.095-.054-3.232-.054-2.137 0-2.356 0-3.233.054-.767.055-1.205.165-1.48.274-.383.165-.657.33-.93.603-.275.274-.44.548-.604.932-.11.274-.219.712-.274 1.48-.054.876-.054 1.095-.054 3.232 0 2.137 0 2.411.054 3.233.055.767.165 1.205.274 1.48.165.383.33.657.603.93.274.275.548.44.932.604.274.11.712.219 1.48.274.876.054 1.095.054 3.232.054 2.137 0 2.411 0 3.233-.054.767-.055 1.205-.165 1.48-.274.383-.165.657-.33.93-.603.275-.274.44-.548.604-.932.11-.274.219-.712.274-1.48zM8 3.89a4.046 4.046 0 0 1 4.055 4.055A4.046 4.046 0 0 1 8 12a4.046 4.046 0 0 1-4.055-4.055A4.046 4.046 0 0 1 8 3.89zm0 6.685a2.63 2.63 0 0 0 2.63-2.63c0-1.424-1.205-2.63-2.63-2.63-1.425 0-2.63 1.206-2.63 2.63A2.63 2.63 0 0 0 8 10.575zm3.342-6.798c0-.52.464-.982.985-.982.521-.058.985.404.985.982a.975.975 0 0 1-.985.982.975.975 0 0 1-.985-.982z"/>
</svg>
