<svg xmlns="http://www.w3.org/2000/svg" width="16" height="16" viewBox="0 0 16 16">
    <path fill="#838798" fill-rule="evenodd" d="M16 2.544c-.597.25-1.197.45-1.894.5a3.236 3.236 0 0 0 1.447-1.794c-.647.4-1.347.647-2.094.797C12.913 1.4 12.013 1 11.116 1a3.289 3.289 0 0 0-3.291 3.29c0 .25.05.5.1.748-2.74-.15-5.134-1.448-6.778-3.441-.3.5-.45 1.047-.45 1.644 0 1.146.597 2.143 1.447 2.74-.547 0-1.047-.15-1.497-.4v.05c0 1.594 1.147 2.89 2.64 3.19-.3.05-.546.1-.846.1-.2 0-.4 0-.597-.05.4 1.298 1.643 2.245 3.04 2.295-1.097.896-2.54 1.396-4.087 1.396-.25 0-.547 0-.797-.05a9.198 9.198 0 0 0 5.034 1.497c6.032 0 9.322-4.984 9.322-9.322v-.4c.647-.55 1.197-1.097 1.644-1.743z"/>
</svg>
