<svg xmlns="http://www.w3.org/2000/svg" width="18" height="16" viewBox="0 0 18 16">
  <path id="car" d="M21,11.56a4.11,4.11,0,0,0-.15-1.1l-1.44-5A2,2,0,0,0,17.49,4h-11a2,2,0,0,0-1.9,1.45l-1.44,5A4.11,4.11,0,0,0,3,11.56V19a1,1,0,0,0,1,1H5a1,1,0,0,0,1-1V18H18v1a1,1,0,0,0,1,1h1a1,1,0,0,0,1-1ZM6.27,5.93a.25.25,0,0,1,.24-.18h11a.25.25,0,0,1,.24.18L18.89,10H5.11ZM8,14a1,1,0,0,1-1,1H6a1,1,0,0,1-1-1V13a1,1,0,0,1,1-1H7a1,1,0,0,1,1,1Zm11,0a1,1,0,0,1-1,1H17a1,1,0,0,1-1-1V13a1,1,0,0,1,1-1h1a1,1,0,0,1,1,1Z" transform="translate(-3 -4)" fill="#9393c2"/>
</svg>
