<svg xmlns="http://www.w3.org/2000/svg" width="25.002" height="22.002" viewBox="0 0 25.002 22.002">
  <path id="Union_5" data-name="Union 5" d="M-14002.058,19847.615A2.888,2.888,0,0,1-14004,19845a2.913,2.913,0,0,1,1-2.1v-1.9a8,8,0,0,1,8-8,8,8,0,0,1,8,8v1.9a2.913,2.913,0,0,1,1,2.1,2.888,2.888,0,0,1-1.943,2.617c-1.3,3.107-3.906,5.385-7.06,5.385S-14000.757,19850.723-14002.058,19847.615Zm1.057-5.615v1.27a.993.993,0,0,1-.5.867.965.965,0,0,0-.5.861.979.979,0,0,0,.857.982,1,1,0,0,1,.8.633c1.031,2.686,3.079,4.389,5.337,4.389s4.31-1.7,5.341-4.389a1,1,0,0,1,.8-.633.979.979,0,0,0,.857-.982.966.966,0,0,0-.5-.861.992.992,0,0,1-.5-.867V19842a1,1,0,0,0-1-1h-10A1,1,0,0,0-14001,19842Zm17-4v-2h-2a1,1,0,0,1-1-1,1,1,0,0,1,1-1h2v-2a1,1,0,0,1,1-1,1,1,0,0,1,1,1v2h2a1,1,0,0,1,1,1,1,1,0,0,1-1,1h-2v2a1,1,0,0,1-1,1A1,1,0,0,1-13984,19838Z" transform="translate(14004.001 -19830.998)" fill="#9393c2"/>
</svg>
