<svg xmlns="http://www.w3.org/2000/svg" width="20" height="13" viewBox="0 0 20 13">
  <path id="group_equal" d="M4.638,7.786a2.729,2.729,0,1,1,2.728,2.786A2.757,2.757,0,0,1,4.638,7.786Zm10,2.786a2.786,2.786,0,1,0-2.728-2.786,2.757,2.757,0,0,0,2.728,2.786Zm6.265,6.082L19.6,13.97a2.723,2.723,0,0,0-2.437-1.541H13.522a4.555,4.555,0,0,1,.436.706l1.319,2.693A2.839,2.839,0,0,1,15.4,18h4.7a.905.905,0,0,0,.772-.443A.946.946,0,0,0,20.906,16.654ZM12.322,13.97a2.723,2.723,0,0,0-2.446-1.541H4.856A2.723,2.723,0,0,0,2.41,13.97L1.1,16.654a.946.946,0,0,0,.037.9A.905.905,0,0,0,1.91,18H12.822a.905.905,0,0,0,.772-.443.946.946,0,0,0,.037-.9Z" transform="translate(-1.003 -5)" fill="#9393c2"/>
</svg>
