<svg xmlns="http://www.w3.org/2000/svg" width="18" height="20" viewBox="0 0 18 20">
  <path id="icons8-user_male" d="M12,2a8,8,0,0,0-8,8v1.9A2.9,2.9,0,0,0,3,14a2.883,2.883,0,0,0,1.943,2.613C6.244,19.723,8.85,22,12,22s5.756-2.277,7.057-5.387A2.883,2.883,0,0,0,21,14a2.9,2.9,0,0,0-1-2.1V10A8,8,0,0,0,12,2ZM7,10H17a1,1,0,0,1,1,1v1.271a1,1,0,0,0,.5.867A.965.965,0,0,1,19,14a.978.978,0,0,1-.861.98,1,1,0,0,0-.8.633C16.309,18.3,14.258,20,12,20s-4.309-1.7-5.34-4.387a1,1,0,0,0-.8-.633A.978.978,0,0,1,5,14a.965.965,0,0,1,.5-.861,1,1,0,0,0,.5-.867V11A1,1,0,0,1,7,10Z" transform="translate(-3 -2)" fill="#9393c2"/>
</svg>
