<svg xmlns="http://www.w3.org/2000/svg" width="20.999" height="19.498" viewBox="0 0 20.999 19.498">
<path d="M4696.189,20271.5h-.376a.769.769,0,0,1-.534-.219L4693,20269c-.179-.18-.383-.381-.622-.617-2.387-2.355-6.378-6.3-6.378-9.883a5.507,5.507,0,0,1,5.5-5.5,5.925,5.925,0,0,0,9,0,5.507,5.507,0,0,1,5.5,5.5c0,3.586-3.991,7.529-6.375,9.885l0,0c-.24.236-.441.438-.616.611l-2.284,2.279A.755.755,0,0,1,4696.189,20271.5Zm-4.69-16.5a3.5,3.5,0,0,0-3.5,3.5c0,1.193.72,2.719,2.139,4.533a42.814,42.814,0,0,0,3.661,3.963l2.2,2.172,2.2-2.172a42.814,42.814,0,0,0,3.661-3.963c1.419-1.814,2.139-3.34,2.139-4.533a3.523,3.523,0,0,0-1.033-2.488,3.482,3.482,0,0,0-2.457-1.012h-.037a5.076,5.076,0,0,0-3.811,2.3.5.5,0,0,1-.4.2h-.448a.762.762,0,0,1-.6-.291,4.983,4.983,0,0,0-3.714-2.207Z" 
      transform="translate(-4685.499 -20252.502)" 
      fill="#fff" 
      stroke="rgba(0,0,0,0)" 
      stroke-miterlimit="10" 
      stroke-width="1"/>
</svg>