<svg xmlns="http://www.w3.org/2000/svg" width="17.001" height="21.002" viewBox="0 0 17.001 21.002"><path d="M4694.385,20273a.549.549,0,0,1-.057,0h-.56a.544.544,0,0,1-.056,0,1,1,0,0,1-.941-.678l-.514-1.543a7,7,0,0,0-2.682-3.18c-1.758-1.395-3.576-2.836-3.576-6.6a8,8,0,1,1,16,0c0,3.752-1.79,5.2-3.521,6.59l-.006,0a6.9,6.9,0,0,0-2.635,3.184l-.509,1.543A1,1,0,0,1,4694.385,20273Zm-.387-15a3,3,0,1,0,3,3A3,3,0,0,0,4694,20258Z" transform="translate(-4685.5 -20252.498)" fill="#9393c2" stroke="rgba(0,0,0,0)" stroke-miterlimit="10" stroke-width="1"/></svg>