<svg xmlns="http://www.w3.org/2000/svg" width="18" height="20" viewBox="0 0 18 20"><path d="M19,4.105H18V2.526A.514.514,0,0,0,17.5,2h-1a.514.514,0,0,0-.5.526V4.105H8V2.526A.514.514,0,0,0,7.5,2h-1a.514.514,0,0,0-.5.526V4.105H5A2.055,2.055,0,0,0,3,6.211V19.895A2.055,2.055,0,0,0,5,22H19a2.055,2.055,0,0,0,2-2.105V6.211A2.055,2.055,0,0,0,19,4.105Zm0,15.789H5V8.316H19Zm-7.5-7.368h1A.514.514,0,0,0,13,12V10.947a.514.514,0,0,0-.5-.526h-1a.514.514,0,0,0-.5.526V12A.514.514,0,0,0,11.5,12.526Zm4,0h1A.514.514,0,0,0,17,12V10.947a.514.514,0,0,0-.5-.526h-1a.514.514,0,0,0-.5.526V12A.514.514,0,0,0,15.5,12.526Zm-8,0h1A.514.514,0,0,0,9,12V10.947a.514.514,0,0,0-.5-.526h-1a.514.514,0,0,0-.5.526V12A.514.514,0,0,0,7.5,12.526Zm4,4.211h1a.514.514,0,0,0,.5-.526V15.158a.514.514,0,0,0-.5-.526h-1a.514.514,0,0,0-.5.526v1.053A.514.514,0,0,0,11.5,16.737Zm-4,0h1a.514.514,0,0,0,.5-.526V15.158a.514.514,0,0,0-.5-.526h-1a.514.514,0,0,0-.5.526v1.053A.514.514,0,0,0,7.5,16.737Z" transform="translate(-3 -2)" fill="#9393c2"/></svg>