<svg xmlns="http://www.w3.org/2000/svg" width="21" height="21" viewBox="0 0 21 21"><path d="M4696,20273a10,10,0,1,1,3.83-19.238A10,10,0,0,1,4696,20273Zm-2.5-8.252a.5.5,0,0,0-.5.5v.752a2,2,0,0,0,2,2v.5a.5.5,0,0,0,.5.5h1a.5.5,0,0,0,.5-.5v-.5a2,2,0,0,0,2-2v-.809a2,2,0,0,0-.728-1.541l-3.435-2.828a.236.236,0,0,1-.086-.189v-.885h2.5v1a.5.5,0,0,0,.5.5h.753a.5.5,0,0,0,.5-.5V20260a2,2,0,0,0-2-2v-.5a.5.5,0,0,0-.5-.5h-1a.5.5,0,0,0-.5.5v.5a2.005,2.005,0,0,0-2,2v.809a1.986,1.986,0,0,0,.728,1.537l3.434,2.834a.218.218,0,0,1,.086.188v.881h-2.5v-1a.5.5,0,0,0-.5-.5Z" transform="translate(-4685.5 -20252.502)" fill="#9393c2" stroke="rgba(0,0,0,0)" stroke-miterlimit="10" stroke-width="1"/></svg>