<svg xmlns="http://www.w3.org/2000/svg" width="24" height="24" viewBox="0 0 24 24">
    <path fill="#838798" fill-rule="evenodd" d="M22 17V4.75a.75.75 0 1 1 1.5 0v13a.75.75 0 0 1-.75.75H19.5v3.25a.75.75 0 0 1-1.166.624L12.523 18.5h-.773a.75.75 0 1 1 0-1.5h1a.75.75 0 0 1 .416.126L18 20.349V17.75a.75.75 0 0 1 .75-.75H22zM4 14.5H.75a.75.75 0 0 1-.75-.75v-12A.75.75 0 0 1 .75 1h18a.75.75 0 0 1 .75.75v12a.75.75 0 0 1-.75.75h-6.76l-6.804 4.86A.75.75 0 0 1 4 18.75V14.5zm14-12H1.5V13h3.25a.75.75 0 0 1 .75.75v3.543l5.814-4.153a.75.75 0 0 1 .436-.14H18V2.5z"/>
</svg>
