<svg xmlns="http://www.w3.org/2000/svg" width="20" height="14" viewBox="0 0 20 14"><path d="M20.909,16.644l-5.2-6.247a.692.692,0,0,0-.546-.271h-.291a.72.72,0,0,0-.556.271l-1.667,2.012L9.2,7.771A.693.693,0,0,0,8.615,7.5H8.333a.711.711,0,0,0-.556.271L1.129,16.644a.626.626,0,0,0,0,.709l.191.315A.679.679,0,0,0,1.912,18H20.126a.679.679,0,0,0,.592-.332l.191-.315A.626.626,0,0,0,20.909,16.644ZM3.67,16.25,8.479,9.836l2.076,6.414ZM16.483,7.5A1.787,1.787,0,0,0,18.3,5.75a1.823,1.823,0,0,0-3.643,0A1.787,1.787,0,0,0,16.483,7.5Z" transform="translate(-1.019 -4)" fill="#ff4f07"/></svg>