<?xml version="1.0" encoding="UTF-8"?>
<svg width="135px" height="22px" viewBox="0 0 135 22" version="1.1" xmlns="http://www.w3.org/2000/svg" xmlns:xlink="http://www.w3.org/1999/xlink">
    <!-- Generator: sketchtool 51.3 (57544) - http://www.bohemiancoding.com/sketch -->
    <title>5AE42CC6-A4AD-4D69-991A-3BA4087DF856@1x</title>
    <desc>Created with sketchtool.</desc>
    <defs>
        <polygon id="path-1" points="0 22 135 22 135 0.00034375 0 0.00034375"></polygon>
    </defs>
    <g id="Page-1" stroke="none" stroke-width="1" fill="none" fill-rule="evenodd">
        <g id="forgot-password-wrong-email" transform="translate(-653.000000, -315.000000)">
            <g id="Group" transform="translate(471.000000, 285.000000)">
                <g id="base">
                    <g id="logo-/-black" transform="translate(182.000000, 30.000000)">
                        <g>
                            <polygon id="Fill-1" fill="#0E0F1B" points="33.4404545 18.9371875 34.2954545 18.9371875 34.2954545 3.062125 33.4404545 3.062125"></polygon>
                            <path d="M44.5307386,6.76970937 C45.0663068,6.53424062 45.7378977,6.41633437 46.5472159,6.41633437 C47.3558523,6.41633437 48.0649432,6.62361562 48.6744886,7.03645937 C49.2836932,7.44999062 49.7367614,8.00755312 50.0326705,8.70811562 L51.3826705,8.70811562 C51.0073295,7.62839687 50.3858523,6.77761563 49.5202841,6.15749062 C48.5971023,5.49164687 47.5096023,5.15820937 46.2560795,5.15820937 C44.6050568,5.15820937 43.2652841,5.72711562 42.2401705,6.86355313 C41.2716477,7.95633437 40.7878977,9.33408437 40.7878977,11.0002406 C40.7878977,12.6653656 41.2716477,14.0441469 42.2401705,15.1358969 C43.2652841,16.2726781 44.6050568,16.8412406 46.2560795,16.8412406 C47.5096023,16.8412406 48.5971023,16.5078031 49.5202841,15.8419594 C50.3858523,15.2218344 51.0073295,14.3717406 51.3826705,13.2920219 L50.0326705,13.2920219 C49.7367614,13.9925844 49.2836932,14.5494594 48.6744886,14.9629906 C48.0649432,15.3768656 47.3558523,15.5831156 46.5472159,15.5831156 C45.0772159,15.5831156 43.9546023,15.1413969 43.1800568,14.2569281 C42.4392614,13.4181781 42.0697159,12.3329594 42.0697159,11.0002406 C42.0697159,9.66752187 42.4392614,8.58195937 43.1800568,7.74355313 C43.5444886,7.32967812 43.9955114,7.00517812 44.5307386,6.76970937" id="Fill-2" fill="#0E0F1B"></path>
                            <polygon id="Fill-4" fill="#0E0F1B" points="70.6590682 6.50220313 77.9391818 6.50220313 70.5571364 15.4806094 70.5571364 16.7033281 79.5114545 16.7033281 79.5114545 15.4974531 72.1287273 15.4974531 79.5114545 6.53692188 79.5114545 5.29632813 70.6590682 5.29632813"></polygon>
                            <polygon id="Fill-6" fill="#0E0F1B" points="105.111409 10.7069875 101.060727 5.2963625 99.5736818 5.2963625 99.5736818 16.7033625 100.855159 16.7033625 100.855159 7.26055 105.111409 12.6887062 109.297773 7.26055 109.297773 16.7033625 110.57925 16.7033625 110.57925 5.2963625 109.092545 5.2963625"></polygon>
                            <mask id="mask-2" fill="white">
                                <use xlink:href="#path-1"></use>
                            </mask>
                            <g id="Clip-9"></g>
                            <polygon id="Fill-8" fill="#0E0F1B" mask="url(#mask-2)" points="116.765455 16.7031563 118.047614 16.7031563 118.047614 5.2971875 116.765455 5.2971875"></polygon>
                            <path d="M132.522239,14.2569625 C131.689739,15.1414312 130.601216,15.58315 129.258034,15.58315 C127.913148,15.58315 126.824966,15.1414312 125.993148,14.2569625 C125.196443,13.4068687 124.79792,12.3209625 124.79792,11.000275 C124.79792,9.6795875 125.196443,8.5933375 125.993148,7.74324375 C126.824966,6.858775 127.913148,6.41636875 129.258034,6.41636875 C130.601216,6.41636875 131.689739,6.858775 132.522239,7.74324375 C133.318943,8.5933375 133.718148,9.6795875 133.718148,11.000275 C133.718148,12.3209625 133.318943,13.4068687 132.522239,14.2569625 M133.410648,6.8635875 C132.32758,5.72715 130.94417,5.15824375 129.258034,5.15824375 C127.571216,5.15824375 126.186784,5.72715 125.104739,6.8635875 C124.045193,7.96736875 123.516102,9.34511875 123.516102,11.000275 C123.516102,12.6544 124.045193,14.0328375 125.104739,15.1359312 C126.186784,16.2727125 127.571216,16.841275 129.258034,16.841275 C130.94417,16.841275 132.32758,16.2727125 133.410648,15.1359312 C134.470193,14.0328375 134.999966,12.6544 134.999966,11.000275 C134.999966,9.34511875 134.470193,7.96736875 133.410648,6.8635875" id="Fill-10" fill="#0E0F1B" mask="url(#mask-2)"></path>
                            <polygon id="Fill-11" fill="#0E0F1B" mask="url(#mask-2)" points="88.3125341 5.29639687 83.5101477 16.7030531 84.9290114 16.7030531 86.3127614 13.3951469 90.6344659 13.3951469 90.1394659 12.2061156 86.8084432 12.2061156 89.1157159 6.64045938 93.3024205 16.7030531 94.7206023 16.7030531 89.9188977 5.29639687"></polygon>
                            <polygon id="Fill-12" fill="#0E0F1B" mask="url(#mask-2)" points="60.1845682 5.29639687 55.3828636 16.7030531 56.8010455 16.7030531 58.1858182 13.3951469 62.5061591 13.3951469 62.0121818 12.2061156 58.6804773 12.2061156 60.98775 6.64045938 65.1741136 16.7030531 66.5933182 16.7030531 61.7912727 5.29639687"></polygon>
                            <path d="M10.9090227,17.9041844 C7.12731818,17.9041844 4.06152273,14.8128406 4.06152273,10.9996219 C4.06152273,7.18709062 7.12731818,4.09574687 10.9090227,4.09574687 C14.4326591,4.09574687 17.3320909,6.78043437 17.7111818,10.2316844 L11.50425,10.2316844 L11.50425,11.7679031 L17.7111818,11.7679031 C17.3320909,15.2191531 14.4326591,17.9041844 10.9090227,17.9041844 Z M17.7275455,10.2316844 L21.7884545,10.2316844 C21.3970909,4.51546562 16.6772045,0.000309375 10.9090227,0.000309375 C4.88413636,0.000309375 -6.81818182e-05,4.92487188 -6.81818182e-05,10.9996219 C-6.81818182e-05,17.0747156 4.88413636,21.9996219 10.9090227,21.9996219 C16.6772045,21.9996219 21.3970909,17.4841219 21.7884545,11.7679031 L17.7275455,11.7679031 L17.7275455,10.2316844 Z" id="Fill-13" fill="#0E0F1B" mask="url(#mask-2)"></path>
                        </g>
                    </g>
                </g>
            </g>
        </g>
    </g>
</svg>