<svg xmlns="http://www.w3.org/2000/svg" width="24" height="24" viewBox="0 0 24 24">
  <path id="sign_out" d="M26.707,14.04,19.853,7.2a.667.667,0,0,0-.947,0l-.947.947a.653.653,0,0,0,0,.933l4.6,4.587H9a.667.667,0,0,0-.667.667v1.333A.667.667,0,0,0,9,16.333H22.56l-4.6,4.587a.667.667,0,0,0,0,.947l.947.933a.667.667,0,0,0,.947,0l6.853-6.84A1,1,0,0,0,27,15.253v-.507a1.027,1.027,0,0,0-.293-.707ZM23.893,15ZM13,24.333H5.667V5.667H13A.667.667,0,0,0,13.667,5V3.667A.667.667,0,0,0,13,3H5.667A2.667,2.667,0,0,0,3,5.667V24.333A2.667,2.667,0,0,0,5.667,27H13a.667.667,0,0,0,.667-.667V25A.667.667,0,0,0,13,24.333Z" transform="translate(-3 -3)" fill="#ff4f07"/>
</svg>
