<svg xmlns="http://www.w3.org/2000/svg" width="16" height="16" viewBox="0 0 16 16">
    <path fill="#838798" fill-rule="evenodd" d="M11.867 8.574l.13.914 2.792.698A1.6 1.6 0 0 1 16 11.738v3.17c0 .34-.276.615-.615.615H12.43a.615.615 0 0 1 0-1.231h2.338v-2.554a.37.37 0 0 0-.279-.358l-3.193-.799a.615.615 0 0 1-.46-.51l-.25-1.747a.615.615 0 0 1 .354-.646 2.338 2.338 0 0 0 1.367-2.125v-.872a2.418 2.418 0 0 0-1.888-2.41 2.379 2.379 0 0 0-1.232.093.615.615 0 1 1-.407-1.161c.6-.21 1.245-.26 1.886-.137a3.65 3.65 0 0 1 2.871 3.627v.861a3.57 3.57 0 0 1-1.671 3.02zM7.48 10.37l.087.61 2.349.671a1.6 1.6 0 0 1 1.16 1.538v1.72c0 .34-.276.615-.615.615H.615A.615.615 0 0 1 0 14.907v-1.72a1.6 1.6 0 0 1 1.16-1.537l2.349-.67.087-.61a4.092 4.092 0 0 1-2.38-.89.615.615 0 0 1-.112-.845c.643-.875.95-1.951.865-3.082a3.57 3.57 0 0 1 3.57-3.569c1.97 0 3.569 1.598 3.567 3.617a4.532 4.532 0 0 0 .867 3.034.615.615 0 0 1-.113.846 4.092 4.092 0 0 1-2.379.888zm-6.25 3.923h8.615v-1.104a.37.37 0 0 0-.267-.354l-2.733-.781a.615.615 0 0 1-.44-.505l-.249-1.747a.615.615 0 0 1 .706-.694 2.861 2.861 0 0 0 1.764-.286 5.693 5.693 0 0 1-.75-3.268 2.338 2.338 0 0 0-2.339-2.338c-1.291 0-2.338 1.047-2.34 2.291a5.763 5.763 0 0 1-.748 3.315 2.861 2.861 0 0 0 1.764.286.615.615 0 0 1 .706.694l-.25 1.747a.615.615 0 0 1-.44.505l-2.732.78a.37.37 0 0 0-.267.355v1.104z"/>
</svg>
