<svg xmlns="http://www.w3.org/2000/svg" width="16" height="16" viewBox="0 0 16 16">
    <path fill="#838798" fill-rule="evenodd" d="M12.852 14.77h1.837v-2.995l-2.492-1.558-2.492 1.558v2.994h1.836v-1.354c0-.34.294-.615.656-.615.362 0 .655.276.655.615v1.354zM3.803 4.184c-.362 0-.655-.276-.655-.616 0-.34.293-.615.655-.615h7.345c.362 0 .655.275.655.615 0 .34-.293.616-.655.616H3.803zm0 2.953c-.362 0-.655-.275-.655-.615 0-.34.293-.615.655-.615h7.345c.362 0 .655.275.655.615 0 .34-.293.615-.655.615H3.803zm0 2.954c-.362 0-.655-.275-.655-.615 0-.34.293-.615.655-.615h3.148c.362 0 .656.275.656.615 0 .34-.294.615-.656.615H3.803zm0 2.954c-.362 0-.655-.275-.655-.615 0-.34.293-.616.655-.616h3.148c.362 0 .656.276.656.616 0 .34-.294.615-.656.615H3.803zM1.311 14.77h5.64c.362 0 .656.276.656.616 0 .34-.294.615-.656.615H.656C.294 16 0 15.724 0 15.385V.615C0 .275.294 0 .656 0h13.64c.361 0 .655.276.655.615v6.893c0 .34-.294.615-.656.615-.362 0-.656-.275-.656-.615V1.23H1.311v13.538zm14.397-3.835a.606.606 0 0 1 .292.512v3.939c0 .34-.294.615-.656.615H9.05c-.362 0-.656-.276-.656-.615v-3.939c0-.206.11-.398.292-.512l3.148-1.97a.692.692 0 0 1 .727 0l3.148 1.97z"/>
</svg>
